<?xml version="1.0" encoding="iso-8859-1"?>
<!-- Generator: Adobe Illustrator 16.0.0, SVG Export Plug-In . SVG Version: 6.00 Build 0)  -->
<!DOCTYPE svg PUBLIC "-//W3C//DTD SVG 1.1//EN" "http://www.w3.org/Graphics/SVG/1.1/DTD/svg11.dtd">
<svg version="1.1" xmlns="http://www.w3.org/2000/svg" xmlns:xlink="http://www.w3.org/1999/xlink" x="0px" y="0px"
	 width="442.18px" height="472.787px" viewBox="0 0 442.18 472.787" style="enable-background:new 0 0 442.18 472.787;"
	 xml:space="preserve">
<g id="_x31_5">
	<g id="XMLID_11_">
		<g>
			<path style="fill:#ED1F24;" d="M114.508,365.245c-7.188-0.184-12.751-9.908-12.449-21.745
				c0.218-8.547,9.452-15.243,20.638-14.958c11.406,0.291,20.737-3.542,20.865-8.57c0.335-13.126,14.531-23.388,28.957-23.02
				c13.326,0.34,24.062,2.585,24,5.014l-11.114,32.957l-0.32,0.763l-21.741,12.329c-0.011,0.42-7.526,3.659-18.852,3.37
				c-5.698-0.145-6.636,0.531-6.674,2.031C137.605,361.703,124.215,365.492,114.508,365.245z"/>
		</g>
		<g>
			<path style="fill:none;stroke:#000000;stroke-width:3;stroke-linecap:round;stroke-linejoin:round;stroke-miterlimit:10;" d="
				M196.519,301.966c0.062-2.429-10.674-4.674-24-5.014"/>
			<path style="fill:none;stroke:#000000;stroke-width:3;stroke-linecap:round;stroke-linejoin:round;stroke-miterlimit:10;" d="
				M143.562,319.972c0.335-13.126,14.531-23.388,28.957-23.02"/>
			<path style="fill:none;stroke:#000000;stroke-width:3;stroke-linecap:round;stroke-linejoin:round;stroke-miterlimit:10;" d="
				M143.562,319.972c-0.128,5.028-9.459,8.861-20.865,8.57"/>
			<path style="fill:none;stroke:#000000;stroke-width:3;stroke-linecap:round;stroke-linejoin:round;stroke-miterlimit:10;" d="
				M102.059,343.5c0.218-8.547,9.452-15.243,20.638-14.958"/>
			<path style="fill:none;stroke:#000000;stroke-width:3;stroke-linecap:round;stroke-linejoin:round;stroke-miterlimit:10;" d="
				M102.059,343.5c-0.302,11.837,5.262,21.562,12.449,21.745"/>
			<path style="fill:none;stroke:#000000;stroke-width:3;stroke-linecap:round;stroke-linejoin:round;stroke-miterlimit:10;" d="
				M137.817,353.416c-0.211,8.287-13.602,12.076-23.309,11.829"/>
			<path style="fill:none;stroke:#000000;stroke-width:3;stroke-linecap:round;stroke-linejoin:round;stroke-miterlimit:10;" d="
				M137.817,353.416c0.039-1.5,0.976-2.176,6.674-2.031"/>
			<path style="fill:none;stroke:#000000;stroke-width:3;stroke-linecap:round;stroke-linejoin:round;stroke-miterlimit:10;" d="
				M163.343,348.015c-0.011,0.42-7.526,3.659-18.852,3.37"/>
			
				<line style="fill:none;stroke:#000000;stroke-width:3;stroke-linecap:round;stroke-linejoin:round;stroke-miterlimit:10;" x1="163.343" y1="348.015" x2="185.084" y2="335.686"/>
			
				<line style="fill:none;stroke:#000000;stroke-width:3;stroke-linecap:round;stroke-linejoin:round;stroke-miterlimit:10;" x1="185.404" y1="334.923" x2="196.519" y2="301.966"/>
		</g>
	</g>
	<g>
		<path style="fill:#F9ED32;" d="M172.49,121.719v-0.01c11.81-15.1,18.84-34.12,18.84-54.79c-20.32,0-39.05,6.8-54.02,18.25h-0.01
			c-6.92,5.29-13.04,11.57-18.14,18.63c-10.59,14.64-16.83,32.65-16.83,52.12c18.44,0,35.57-5.6,49.77-15.19
			C159.85,135.5,166.73,129.08,172.49,121.719z M143.61,244.02c-12.54,1.011-24.48,2.48-35.61,4.341
			c-12.05,2.029-23.16,4.52-33.07,7.39c-11.52,3.35-21.43,7.21-29.33,11.49c-9.98,5.39-16.76,11.42-19.53,17.85
			c-0.93,2.16-1.41,4.36-1.41,6.59C12.69,291.68,3,285.57,3,278.01c0-11.05,4.65-20,10.39-20c0-0.8,0-4.54,0-9.24
			C13.39,112.919,107.56,3,223.93,3c59.49,0,113.301,23.88,152.24,62.52c38.94,38.63,63.01,92.02,63.01,151.04
			c0,139.9-99.801,256.204-218.742,253.17c-59.531-1.519-107.488-10.835-107.234-20.822c-3.973,2.399-17.407,2.788-17.403,2.647
			c-9.947-0.254-17.892-4.487-17.765-9.456c0.263-10.316,4.645-18.558,9.803-18.427c10.236,0.262,20.225-1.904,29.788-6.212
			c8.308-3.729,16.296-9.077,23.852-15.847c6.152-5.505,12.019-11.947,17.536-19.229c6.293-8.293,12.135-17.677,17.45-27.984
			c3.904-7.583,7.521-15.674,10.811-24.213c12.64-32.758,21.055-71.737,21.055-114.178c0,9.31-4.73,17.49-11.89,22.18
			c-4.07,2.681-8.91,4.23-14.11,4.23H184c-3.34,0-6.65,0.029-9.93,0.09C163.61,242.71,153.42,243.22,143.61,244.02z"/>
		<path style="fill:#C9C9C9;" d="M99.759,391.286l17.869,26.174c-9.563,4.308-19.552,6.474-29.788,6.212l-12.119-21.405
			l20.625-15.979L99.759,391.286z"/>
		<path style="fill:#C9C9C9;" d="M143.61,244.02c9.81-0.8,20-1.31,30.46-1.51l0.01,0.32l2.74,11.87l0.51,2.22l-29.88,6.12
			L143.61,244.02z"/>
		<path style="fill:#C9C9C9;" d="M147.83,264.92l-33.78,8.23L108,248.36c11.13-1.86,23.07-3.33,35.61-4.341l3.84,19.021
			L147.83,264.92z"/>
		<path style="fill:#C9C9C9;" d="M196.44,238.199l4.39,9.461l-24.01,7.04l-2.74-11.87l-0.01-0.32c3.28-0.061,6.59-0.09,9.93-0.09
			h-1.67c5.2,0,10.04-1.55,14.11-4.23V238.199z"/>
		<path style="fill:#C9C9C9;" d="M170.176,345.237l17.099-15.05c-3.289,8.539-6.906,16.63-10.811,24.213L170.176,345.237z"/>
		<path style="fill:#F1F2F2;" d="M191.33,66.919c0,20.67-7.03,39.69-18.84,54.79c-0.01-21.14-16.37-36.53-35.18-36.54
			C152.28,73.719,171.01,66.919,191.33,66.919z"/>
		<path style="fill:#C9C9C9;" d="M170.176,345.237l6.289,9.163c-5.315,10.308-11.156,19.691-17.45,27.984l-13.924-20.412
			l23.985-18.345L170.176,345.237z"/>
		<path style="fill:#006838;" d="M172.49,121.709v0.01c-5.76,7.36-12.64,13.78-20.39,19.01c0-20.41-14.72-36.92-32.94-36.93
			c5.1-7.06,11.22-13.34,18.14-18.63h0.01C156.12,85.179,172.48,100.569,172.49,121.709z"/>
		<path style="fill:#C9C9C9;" d="M145.091,361.973l13.924,20.412c-5.518,7.281-11.384,13.724-17.536,19.229l-15.742-24.829
			l18.515-16.033L145.091,361.973z"/>
		<path style="fill:#C9C9C9;" d="M125.737,376.784l15.742,24.829c-7.555,6.77-15.544,12.117-23.852,15.847l-17.869-26.174
			l23.555-18.315L125.737,376.784z"/>
		<path d="M119.16,103.799c18.22,0.01,32.94,16.52,32.94,36.93c-14.2,9.59-31.33,15.19-49.77,15.19
			C102.33,136.449,108.57,118.439,119.16,103.799z"/>
		<path style="fill:#C9C9C9;" d="M114.05,273.15l1.28,5.27l-31.65,10.24l-8.75-32.9v-0.01c9.91-2.87,21.02-5.36,33.07-7.39
			L114.05,273.15z"/>
		<path style="fill:#C9C9C9;" d="M83.68,288.66l1.4,5.26l-25.99,14.01L45.6,267.24c7.9-4.28,17.81-8.141,29.33-11.49v0.01
			L83.68,288.66z"/>
		<path style="fill:#C9C9C9;" d="M59.09,307.93l1.74,5.24l-20.5,11l-14.25-39.08h-0.01c2.77-6.43,9.55-12.46,19.53-17.85
			L59.09,307.93z"/>
		<path style="fill:none;stroke:#000000;stroke-width:6;stroke-linecap:round;stroke-linejoin:round;stroke-miterlimit:10;" d="
			M13.39,248.77C13.39,112.919,107.56,3,223.93,3c59.49,0,113.301,23.88,152.24,62.52c38.94,38.63,63.01,92.02,63.01,151.04
			c0,139.9-99.801,256.204-218.742,253.17c-59.531-1.519-107.488-10.835-107.234-20.822c-3.973,2.399-17.407,2.788-17.403,2.647
			c-9.947-0.254-17.892-4.487-17.765-9.456c0.263-10.316,4.645-18.558,9.803-18.427c10.236,0.262,20.225-1.904,29.788-6.212
			c8.308-3.729,16.296-9.077,23.852-15.847c6.152-5.505,12.019-11.947,17.536-19.229c6.293-8.293,12.135-17.677,17.45-27.984
			c3.904-7.583,7.521-15.674,10.811-24.213c12.64-32.758,21.055-71.737,21.055-114.178c0,9.31-4.73,17.49-11.89,22.18
			c-4.07,2.681-8.91,4.23-14.11,4.23H184c-3.34,0-6.65,0.029-9.93,0.09c-10.46,0.2-20.65,0.71-30.46,1.51
			c-12.54,1.011-24.48,2.48-35.61,4.341c-12.05,2.029-23.16,4.52-33.07,7.39c-11.52,3.35-21.43,7.21-29.33,11.49
			c-9.98,5.39-16.76,11.42-19.53,17.85c-0.93,2.16-1.41,4.36-1.41,6.59C12.69,291.68,3,285.57,3,278.01c0-11.05,4.65-20,10.39-20"/>
		<path style="fill:none;stroke:#000000;stroke-width:6;stroke-linecap:round;stroke-linejoin:round;stroke-miterlimit:10;" d="
			M13.39,248.77c0,4.7,0,8.44,0,9.24"/>
		<path style="fill:none;stroke:#000000;stroke-width:3;stroke-linecap:round;stroke-linejoin:bevel;stroke-miterlimit:10;" d="
			M172.49,121.709c-0.01-21.14-16.37-36.53-35.18-36.54"/>
		<path style="fill:none;stroke:#000000;stroke-width:3;stroke-linecap:round;stroke-linejoin:bevel;stroke-miterlimit:10;" d="
			M191.33,66.919"/>
		<path style="fill:none;stroke:#000000;stroke-width:3;stroke-linecap:round;stroke-linejoin:bevel;stroke-miterlimit:10;" d="
			M119.16,103.799"/>
		<path style="fill:none;stroke:#000000;stroke-width:3;stroke-linecap:round;stroke-linejoin:bevel;stroke-miterlimit:10;" d="
			M102.33,155.919"/>
		<path style="fill:none;stroke:#000000;stroke-width:3;stroke-linecap:round;stroke-linejoin:bevel;stroke-miterlimit:10;" d="
			M191.33,66.919c0,20.67-7.03,39.69-18.84,54.79v0.01c-5.76,7.36-12.64,13.78-20.39,19.01c-14.2,9.59-31.33,15.19-49.77,15.19"/>
		<path style="fill:none;stroke:#000000;stroke-width:3;stroke-linecap:round;stroke-linejoin:bevel;stroke-miterlimit:10;" d="
			M152.1,140.729c0-20.41-14.72-36.92-32.94-36.93h-0.01"/>
		
			<line style="fill:none;stroke:#000000;stroke-width:4;stroke-linecap:round;stroke-miterlimit:10;" x1="200.83" y1="247.66" x2="196.44" y2="238.199"/>
		
			<line style="fill:none;stroke:#000000;stroke-width:4;stroke-linecap:round;stroke-miterlimit:10;" x1="26.08" y1="285.09" x2="40.33" y2="324.17"/>
		
			<line style="fill:none;stroke:#000000;stroke-width:4;stroke-linecap:round;stroke-miterlimit:10;" x1="40.33" y1="324.17" x2="60.83" y2="313.17"/>
		<polyline style="fill:none;stroke:#000000;stroke-width:4;stroke-linecap:round;stroke-miterlimit:10;" points="60.83,313.17 
			59.09,307.93 45.6,267.24 		"/>
		
			<line style="fill:none;stroke:#000000;stroke-width:4;stroke-linecap:round;stroke-miterlimit:10;" x1="59.09" y1="307.93" x2="85.08" y2="293.92"/>
		<polyline style="fill:none;stroke:#000000;stroke-width:4;stroke-linecap:round;stroke-miterlimit:10;" points="85.08,293.92 
			83.68,288.66 74.93,255.76 		"/>
		
			<line style="fill:none;stroke:#000000;stroke-width:4;stroke-linecap:round;stroke-miterlimit:10;" x1="83.68" y1="288.66" x2="115.33" y2="278.42"/>
		<polyline style="fill:none;stroke:#000000;stroke-width:4;stroke-linecap:round;stroke-miterlimit:10;" points="115.33,278.42 
			114.05,273.15 108,248.36 107.83,247.66 		"/>
		
			<line style="fill:none;stroke:#000000;stroke-width:4;stroke-linecap:round;stroke-miterlimit:10;" x1="114.05" y1="273.15" x2="147.83" y2="264.92"/>
		<polyline style="fill:none;stroke:#000000;stroke-width:4;stroke-linecap:round;stroke-miterlimit:10;" points="147.83,264.92 
			147.45,263.04 143.61,244.02 143.61,244.01 		"/>
		
			<line style="fill:none;stroke:#000000;stroke-width:4;stroke-linecap:round;stroke-miterlimit:10;" x1="147.45" y1="263.04" x2="177.33" y2="256.92"/>
		<polyline style="fill:none;stroke:#000000;stroke-width:4;stroke-linecap:round;stroke-miterlimit:10;" points="177.33,256.92 
			176.82,254.7 174.08,242.83 		"/>
		
			<line style="fill:none;stroke:#000000;stroke-width:4;stroke-linecap:round;stroke-miterlimit:10;" x1="176.82" y1="254.7" x2="200.83" y2="247.66"/>
		
			<line style="fill:none;stroke:#000000;stroke-width:4;stroke-linecap:round;stroke-miterlimit:10;" x1="87.839" y1="423.672" x2="75.721" y2="402.267"/>
		
			<line style="fill:none;stroke:#000000;stroke-width:4;stroke-linecap:round;stroke-miterlimit:10;" x1="75.721" y1="402.267" x2="96.345" y2="386.287"/>
		<polyline style="fill:none;stroke:#000000;stroke-width:4;stroke-linecap:round;stroke-miterlimit:10;" points="96.345,386.287 
			99.759,391.286 117.627,417.46 		"/>
		
			<line style="fill:none;stroke:#000000;stroke-width:4;stroke-linecap:round;stroke-miterlimit:10;" x1="99.759" y1="391.286" x2="123.313" y2="372.971"/>
		<polyline style="fill:none;stroke:#000000;stroke-width:4;stroke-linecap:round;stroke-miterlimit:10;" points="123.313,372.971 
			125.737,376.784 141.479,401.613 		"/>
		
			<line style="fill:none;stroke:#000000;stroke-width:4;stroke-linecap:round;stroke-miterlimit:10;" x1="125.737" y1="376.784" x2="144.252" y2="360.751"/>
		<polyline style="fill:none;stroke:#000000;stroke-width:4;stroke-linecap:round;stroke-miterlimit:10;" points="144.252,360.751 
			145.091,361.973 159.015,382.385 		"/>
		
			<line style="fill:none;stroke:#000000;stroke-width:4;stroke-linecap:round;stroke-miterlimit:10;" x1="145.091" y1="361.973" x2="169.077" y2="343.628"/>
		<polyline style="fill:none;stroke:#000000;stroke-width:4;stroke-linecap:round;stroke-miterlimit:10;" points="169.077,343.628 
			170.176,345.237 176.465,354.4 		"/>
		
			<line style="fill:none;stroke:#000000;stroke-width:4;stroke-linecap:round;stroke-miterlimit:10;" x1="170.176" y1="345.237" x2="187.275" y2="330.188"/>
		<path style="fill:none;stroke:#000000;stroke-width:3;stroke-linecap:round;stroke-linejoin:bevel;stroke-miterlimit:10;" d="
			M191.33,66.919"/>
		<path style="fill:none;stroke:#000000;stroke-width:3;stroke-linecap:round;stroke-linejoin:bevel;stroke-miterlimit:10;" d="
			M191.33,66.919"/>
		<path style="fill:none;stroke:#000000;stroke-width:3;stroke-linecap:round;stroke-linejoin:bevel;stroke-miterlimit:10;" d="
			M102.33,155.919c0-49.193,39.807-89,89-89"/>
		<g>
			<path style="fill:none;stroke:#000000;stroke-width:3;stroke-miterlimit:10;" d="M238.33,199.919c0-8.015-6.441-14.5-14.402-14.5
				"/>
			<path style="fill:none;stroke:#000000;stroke-width:3;stroke-miterlimit:10;" d="M273.83,202.919c0-23.215-15.878-42-35.5-42"/>
		</g>
	</g>
</g>
<g id="Layer_1">
</g>
</svg>
