<?xml version="1.0" encoding="iso-8859-1"?>
<!-- Generator: Adobe Illustrator 16.0.0, SVG Export Plug-In . SVG Version: 6.00 Build 0)  -->
<!DOCTYPE svg PUBLIC "-//W3C//DTD SVG 1.1//EN" "http://www.w3.org/Graphics/SVG/1.1/DTD/svg11.dtd">
<svg version="1.1" xmlns="http://www.w3.org/2000/svg" xmlns:xlink="http://www.w3.org/1999/xlink" x="0px" y="0px"
	 width="442.18px" height="472.877px" viewBox="0 0 442.18 472.877" style="enable-background:new 0 0 442.18 472.877;"
	 xml:space="preserve">
<g id="_x31_6">
	<g id="XMLID_10_">
		<g>
			<path style="fill:#ED1F24;" d="M170.656,295.419c13.309,0.756,23.97,3.334,23.832,5.76l-12.137,32.595l-0.343,0.752
				l-22.116,11.646c-0.024,0.419-7.636,3.423-18.948,2.781c-5.691-0.323-6.649,0.323-6.734,1.821
				c-0.47,8.276-13.972,11.646-23.667,11.097c-7.179-0.407-12.437-10.302-11.766-22.122c0.484-8.537,9.923-14.942,21.095-14.308
				c11.392,0.646,20.837-2.895,21.123-7.916C141.74,304.415,156.249,294.602,170.656,295.419z"/>
		</g>
		<g>
			<path style="fill:none;stroke:#000000;stroke-width:3;stroke-linecap:round;stroke-linejoin:round;stroke-miterlimit:10;" d="
				M194.488,301.179c0.138-2.426-10.523-5.004-23.832-5.76"/>
			<path style="fill:none;stroke:#000000;stroke-width:3;stroke-linecap:round;stroke-linejoin:round;stroke-miterlimit:10;" d="
				M140.996,317.524c0.744-13.109,15.253-22.923,29.66-22.105"/>
			<path style="fill:none;stroke:#000000;stroke-width:3;stroke-linecap:round;stroke-linejoin:round;stroke-miterlimit:10;" d="
				M140.996,317.524c-0.285,5.021-9.731,8.563-21.123,7.916"/>
			<path style="fill:none;stroke:#000000;stroke-width:3;stroke-linecap:round;stroke-linejoin:round;stroke-miterlimit:10;" d="
				M98.778,339.748c0.484-8.537,9.923-14.942,21.095-14.308"/>
			<path style="fill:none;stroke:#000000;stroke-width:3;stroke-linecap:round;stroke-linejoin:round;stroke-miterlimit:10;" d="
				M98.778,339.748c-0.671,11.82,4.587,21.715,11.766,22.122"/>
			<path style="fill:none;stroke:#000000;stroke-width:3;stroke-linecap:round;stroke-linejoin:round;stroke-miterlimit:10;" d="
				M134.21,350.773c-0.47,8.276-13.972,11.646-23.667,11.097"/>
			<path style="fill:none;stroke:#000000;stroke-width:3;stroke-linecap:round;stroke-linejoin:round;stroke-miterlimit:10;" d="
				M134.21,350.773c0.085-1.498,1.043-2.145,6.734-1.821"/>
			<path style="fill:none;stroke:#000000;stroke-width:3;stroke-linecap:round;stroke-linejoin:round;stroke-miterlimit:10;" d="
				M159.893,346.171c-0.024,0.419-7.636,3.423-18.948,2.781"/>
			
				<line style="fill:none;stroke:#000000;stroke-width:3;stroke-linecap:round;stroke-linejoin:round;stroke-miterlimit:10;" x1="159.893" y1="346.171" x2="182.008" y2="334.525"/>
			
				<line style="fill:none;stroke:#000000;stroke-width:3;stroke-linecap:round;stroke-linejoin:round;stroke-miterlimit:10;" x1="182.351" y1="333.773" x2="194.488" y2="301.179"/>
		</g>
	</g>
	<g>
		<path style="fill:#F9ED32;" d="M172.49,121.72v-0.01c11.81-15.1,18.84-34.12,18.84-54.79c-20.32,0-39.05,6.8-54.02,18.25h-0.01
			c-6.92,5.29-13.04,11.57-18.14,18.63c-10.59,14.64-16.83,32.65-16.83,52.12c18.44,0,35.57-5.6,49.77-15.19
			C159.85,135.5,166.73,129.08,172.49,121.72z M143.61,244.02c-12.54,1.011-24.48,2.48-35.61,4.341
			c-12.05,2.029-23.16,4.52-33.07,7.39c-11.52,3.35-21.43,7.21-29.33,11.49c-9.98,5.39-16.76,11.42-19.53,17.85
			c-0.93,2.16-1.41,4.36-1.41,6.59C12.69,291.68,3,285.57,3,278.01c0-11.05,4.65-20,10.39-20c0-0.8,0-4.54,0-9.24
			C13.39,112.92,107.56,3,223.93,3c59.49,0,113.301,23.88,152.24,62.52c38.94,38.63,63.01,92.02,63.01,151.04
			c0,139.9-107.23,259.788-226.02,253.045c-59.455-3.375-107.099-14.182-106.532-24.156c-4.045,2.275-17.486,2.244-17.478,2.104
			c-9.934-0.564-17.743-5.044-17.461-10.006c0.585-10.304,5.221-18.403,10.373-18.111c10.223,0.579,20.275-1.273,29.967-5.28
			c8.42-3.469,16.572-8.564,24.335-15.096c6.321-5.311,12.385-11.566,18.127-18.673c6.549-8.092,12.68-17.289,18.313-27.427
			c4.139-7.456,8.007-15.431,11.561-23.863C198.02,296.75,208.33,258.45,208.33,216.01c0,9.31-4.73,17.49-11.89,22.181
			c-4.07,2.68-8.91,4.229-14.11,4.229H184c-3.34,0-6.65,0.03-9.93,0.09C163.61,242.71,153.42,243.22,143.61,244.02z"/>
		<path style="fill:#C9C9C9;" d="M94.986,387.438l17.043,26.719c-9.692,4.007-19.744,5.859-29.967,5.28l-11.445-21.773
			l21.113-15.329L94.986,387.438z"/>
		<path style="fill:#C9C9C9;" d="M143.61,244.02c9.81-0.8,20-1.31,30.46-1.51l0.01,0.32l2.74,11.87l0.51,2.22l-29.88,6.12
			L143.61,244.02z"/>
		<path style="fill:#C9C9C9;" d="M147.83,264.92l-33.78,8.23L108,248.36c11.13-1.86,23.07-3.33,35.61-4.341l3.84,19.021
			L147.83,264.92z"/>
		<path style="fill:#C9C9C9;" d="M196.44,238.2l4.39,9.46l-24.01,7.04l-2.74-11.87l-0.01-0.32c3.28-0.06,6.59-0.09,9.93-0.09h-1.67
			c5.2,0,10.04-1.55,14.11-4.229V238.2z"/>
		<path style="fill:#C9C9C9;" d="M166.806,343.606l17.56-14.509c-3.553,8.433-7.421,16.407-11.561,23.863L166.806,343.606z"/>
		<path style="fill:#F1F2F2;" d="M191.33,66.92c0,20.67-7.03,39.69-18.84,54.79c-0.01-21.14-16.37-36.53-35.18-36.54
			C152.28,73.72,171.01,66.92,191.33,66.92z"/>
		<path style="fill:#C9C9C9;" d="M166.806,343.606l5.999,9.354c-5.633,10.138-11.765,19.335-18.313,27.428l-13.281-20.837
			l24.545-17.588L166.806,343.606z"/>
		<path style="fill:#006838;" d="M172.49,121.71v0.01c-5.76,7.36-12.64,13.78-20.39,19.01c0-20.41-14.72-36.92-32.94-36.93
			c5.1-7.06,11.22-13.34,18.14-18.63h0.01C156.12,85.18,172.48,100.57,172.49,121.71z"/>
		<path style="fill:#C9C9C9;" d="M141.211,359.552l13.281,20.837c-5.742,7.105-11.807,13.361-18.127,18.672l-14.96-25.309
			l19.006-15.447L141.211,359.552z"/>
		<path style="fill:#C9C9C9;" d="M121.404,373.752l14.96,25.309c-7.763,6.531-15.915,11.627-24.335,15.096l-17.043-26.719
			l24.115-17.571L121.404,373.752z"/>
		<path d="M119.16,103.8c18.22,0.01,32.94,16.52,32.94,36.93c-14.2,9.59-31.33,15.19-49.77,15.19
			C102.33,136.45,108.57,118.44,119.16,103.8z"/>
		<path style="fill:#C9C9C9;" d="M114.05,273.15l1.28,5.27l-31.65,10.24l-8.75-32.9v-0.01c9.91-2.87,21.02-5.36,33.07-7.39
			L114.05,273.15z"/>
		<path style="fill:#C9C9C9;" d="M83.68,288.66l1.4,5.26l-25.99,14.01L45.6,267.24c7.9-4.28,17.81-8.141,29.33-11.49v0.01
			L83.68,288.66z"/>
		<path style="fill:#C9C9C9;" d="M59.09,307.93l1.74,5.24l-20.5,11l-14.25-39.08h-0.01c2.77-6.43,9.55-12.46,19.53-17.85
			L59.09,307.93z"/>
		<path style="fill:none;stroke:#000000;stroke-width:6;stroke-linecap:round;stroke-linejoin:round;stroke-miterlimit:10;" d="
			M13.39,248.77C13.39,112.92,107.56,3,223.93,3c59.49,0,113.301,23.88,152.24,62.52c38.94,38.63,63.01,92.02,63.01,151.04
			c0,139.9-107.23,259.788-226.02,253.045c-59.455-3.375-107.099-14.182-106.532-24.156c-4.045,2.275-17.486,2.244-17.478,2.104
			c-9.934-0.564-17.743-5.044-17.461-10.006c0.585-10.304,5.221-18.403,10.373-18.111c10.223,0.579,20.275-1.273,29.967-5.28
			c8.42-3.469,16.572-8.564,24.335-15.096c6.321-5.311,12.385-11.566,18.127-18.673c6.549-8.092,12.68-17.289,18.313-27.427
			c4.139-7.456,8.007-15.431,11.561-23.863C198.02,296.75,208.33,258.45,208.33,216.01c0,9.31-4.73,17.49-11.89,22.181
			c-4.07,2.68-8.91,4.229-14.11,4.229H184c-3.34,0-6.65,0.03-9.93,0.09c-10.46,0.2-20.65,0.71-30.46,1.51
			c-12.54,1.011-24.48,2.48-35.61,4.341c-12.05,2.029-23.16,4.52-33.07,7.39c-11.52,3.35-21.43,7.21-29.33,11.49
			c-9.98,5.39-16.76,11.42-19.53,17.85c-0.93,2.16-1.41,4.36-1.41,6.59C12.69,291.68,3,285.57,3,278.01c0-11.05,4.65-20,10.39-20"/>
		<path style="fill:none;stroke:#000000;stroke-width:6;stroke-linecap:round;stroke-linejoin:round;stroke-miterlimit:10;" d="
			M13.39,248.77c0,4.7,0,8.44,0,9.24"/>
		<path style="fill:none;stroke:#000000;stroke-width:3;stroke-linecap:round;stroke-linejoin:bevel;stroke-miterlimit:10;" d="
			M172.49,121.71c-0.01-21.14-16.37-36.53-35.18-36.54"/>
		<path style="fill:none;stroke:#000000;stroke-width:3;stroke-linecap:round;stroke-linejoin:bevel;stroke-miterlimit:10;" d="
			M191.33,66.92"/>
		<path style="fill:none;stroke:#000000;stroke-width:3;stroke-linecap:round;stroke-linejoin:bevel;stroke-miterlimit:10;" d="
			M119.16,103.8"/>
		<path style="fill:none;stroke:#000000;stroke-width:3;stroke-linecap:round;stroke-linejoin:bevel;stroke-miterlimit:10;" d="
			M102.33,155.92"/>
		<path style="fill:none;stroke:#000000;stroke-width:3;stroke-linecap:round;stroke-linejoin:bevel;stroke-miterlimit:10;" d="
			M191.33,66.92c0,20.67-7.03,39.69-18.84,54.79v0.01c-5.76,7.36-12.64,13.78-20.39,19.01c-14.2,9.59-31.33,15.19-49.77,15.19"/>
		<path style="fill:none;stroke:#000000;stroke-width:3;stroke-linecap:round;stroke-linejoin:bevel;stroke-miterlimit:10;" d="
			M152.1,140.73c0-20.41-14.72-36.92-32.94-36.93h-0.01"/>
		
			<line style="fill:none;stroke:#000000;stroke-width:4;stroke-linecap:round;stroke-miterlimit:10;" x1="200.83" y1="247.66" x2="196.44" y2="238.2"/>
		
			<line style="fill:none;stroke:#000000;stroke-width:4;stroke-linecap:round;stroke-miterlimit:10;" x1="26.08" y1="285.09" x2="40.33" y2="324.17"/>
		
			<line style="fill:none;stroke:#000000;stroke-width:4;stroke-linecap:round;stroke-miterlimit:10;" x1="40.33" y1="324.17" x2="60.83" y2="313.17"/>
		<polyline style="fill:none;stroke:#000000;stroke-width:4;stroke-linecap:round;stroke-miterlimit:10;" points="60.83,313.17 
			59.09,307.93 45.6,267.24 		"/>
		
			<line style="fill:none;stroke:#000000;stroke-width:4;stroke-linecap:round;stroke-miterlimit:10;" x1="59.09" y1="307.93" x2="85.08" y2="293.92"/>
		<polyline style="fill:none;stroke:#000000;stroke-width:4;stroke-linecap:round;stroke-miterlimit:10;" points="85.08,293.92 
			83.68,288.66 74.93,255.76 		"/>
		
			<line style="fill:none;stroke:#000000;stroke-width:4;stroke-linecap:round;stroke-miterlimit:10;" x1="83.68" y1="288.66" x2="115.33" y2="278.42"/>
		<polyline style="fill:none;stroke:#000000;stroke-width:4;stroke-linecap:round;stroke-miterlimit:10;" points="115.33,278.42 
			114.05,273.15 108,248.36 107.83,247.66 		"/>
		
			<line style="fill:none;stroke:#000000;stroke-width:4;stroke-linecap:round;stroke-miterlimit:10;" x1="114.05" y1="273.15" x2="147.83" y2="264.92"/>
		<polyline style="fill:none;stroke:#000000;stroke-width:4;stroke-linecap:round;stroke-miterlimit:10;" points="147.83,264.92 
			147.45,263.04 143.61,244.02 143.61,244.01 		"/>
		
			<line style="fill:none;stroke:#000000;stroke-width:4;stroke-linecap:round;stroke-miterlimit:10;" x1="147.45" y1="263.04" x2="177.33" y2="256.92"/>
		<polyline style="fill:none;stroke:#000000;stroke-width:4;stroke-linecap:round;stroke-miterlimit:10;" points="177.33,256.92 
			176.82,254.7 174.08,242.83 		"/>
		
			<line style="fill:none;stroke:#000000;stroke-width:4;stroke-linecap:round;stroke-miterlimit:10;" x1="176.82" y1="254.7" x2="200.83" y2="247.66"/>
		
			<line style="fill:none;stroke:#000000;stroke-width:4;stroke-linecap:round;stroke-miterlimit:10;" x1="82.062" y1="419.437" x2="70.617" y2="397.663"/>
		
			<line style="fill:none;stroke:#000000;stroke-width:4;stroke-linecap:round;stroke-miterlimit:10;" x1="70.617" y1="397.663" x2="91.73" y2="382.334"/>
		<polyline style="fill:none;stroke:#000000;stroke-width:4;stroke-linecap:round;stroke-miterlimit:10;" points="91.73,382.334 
			94.986,387.438 112.029,414.156 		"/>
		
			<line style="fill:none;stroke:#000000;stroke-width:4;stroke-linecap:round;stroke-miterlimit:10;" x1="94.986" y1="387.438" x2="119.101" y2="369.866"/>
		<polyline style="fill:none;stroke:#000000;stroke-width:4;stroke-linecap:round;stroke-miterlimit:10;" points="119.101,369.866 
			121.404,373.752 136.364,399.061 		"/>
		
			<line style="fill:none;stroke:#000000;stroke-width:4;stroke-linecap:round;stroke-miterlimit:10;" x1="121.404" y1="373.752" x2="140.41" y2="358.305"/>
		<polyline style="fill:none;stroke:#000000;stroke-width:4;stroke-linecap:round;stroke-miterlimit:10;" points="140.41,358.305 
			141.211,359.552 154.492,380.389 		"/>
		
			<line style="fill:none;stroke:#000000;stroke-width:4;stroke-linecap:round;stroke-miterlimit:10;" x1="141.211" y1="359.552" x2="165.756" y2="341.964"/>
		<polyline style="fill:none;stroke:#000000;stroke-width:4;stroke-linecap:round;stroke-miterlimit:10;" points="165.756,341.964 
			166.806,343.606 172.805,352.961 		"/>
		
			<line style="fill:none;stroke:#000000;stroke-width:4;stroke-linecap:round;stroke-miterlimit:10;" x1="166.806" y1="343.606" x2="184.365" y2="329.098"/>
		<path style="fill:none;stroke:#000000;stroke-width:3;stroke-linecap:round;stroke-linejoin:bevel;stroke-miterlimit:10;" d="
			M191.33,66.92"/>
		<path style="fill:none;stroke:#000000;stroke-width:3;stroke-linecap:round;stroke-linejoin:bevel;stroke-miterlimit:10;" d="
			M191.33,66.92"/>
		<path style="fill:none;stroke:#000000;stroke-width:3;stroke-linecap:round;stroke-linejoin:bevel;stroke-miterlimit:10;" d="
			M102.33,155.92c0-49.193,39.807-89,89-89"/>
		<g>
			<path style="fill:none;stroke:#000000;stroke-width:3;stroke-miterlimit:10;" d="M238.33,199.92c0-8.015-6.441-14.5-14.402-14.5"
				/>
			<path style="fill:none;stroke:#000000;stroke-width:3;stroke-miterlimit:10;" d="M273.83,202.92c0-23.215-15.878-42-35.5-42"/>
		</g>
	</g>
</g>
<g id="Layer_1">
</g>
</svg>
