<?xml version="1.0" encoding="iso-8859-1"?>
<!-- Generator: Adobe Illustrator 16.0.0, SVG Export Plug-In . SVG Version: 6.00 Build 0)  -->
<!DOCTYPE svg PUBLIC "-//W3C//DTD SVG 1.1//EN" "http://www.w3.org/Graphics/SVG/1.1/DTD/svg11.dtd">
<svg version="1.1" xmlns="http://www.w3.org/2000/svg" xmlns:xlink="http://www.w3.org/1999/xlink" x="0px" y="0px"
	 width="442.18px" height="467.372px" viewBox="0 0 442.18 467.372" style="enable-background:new 0 0 442.18 467.372;"
	 xml:space="preserve">
<g id="_x32_0">
	<g id="XMLID_30_">
		<g>
			<path style="fill:#ED1F24;" d="M168.344,286.11c12.915,2.345,23.021,6.158,22.592,8.521l-15.827,30.507l-0.415,0.688
				l-23.029,8.768c-0.074,0.408-7.878,2.437-18.855,0.443c-5.522-1.002-6.538-0.483-6.802,0.976
				c-1.464,8.062-15.069,9.74-24.477,8.032c-6.966-1.265-10.904-11.603-8.813-23.117c1.509-8.314,11.511-13.46,22.353-11.492
				c11.055,2.007,20.716-0.327,21.604-5.219C138.992,291.449,154.364,283.571,168.344,286.11z"/>
		</g>
		<g>
			<path style="fill:none;stroke:#000000;stroke-width:3;stroke-linecap:round;stroke-linejoin:round;stroke-miterlimit:10;" d="
				M190.937,294.632c0.429-2.363-9.677-6.177-22.592-8.521"/>
			<path style="fill:none;stroke:#000000;stroke-width:3;stroke-linecap:round;stroke-linejoin:round;stroke-miterlimit:10;" d="
				M136.674,304.218c2.318-12.769,17.689-20.646,31.67-18.107"/>
			<path style="fill:none;stroke:#000000;stroke-width:3;stroke-linecap:round;stroke-linejoin:round;stroke-miterlimit:10;" d="
				M136.674,304.218c-0.888,4.892-10.549,7.226-21.604,5.219"/>
			<path style="fill:none;stroke:#000000;stroke-width:3;stroke-linecap:round;stroke-linejoin:round;stroke-miterlimit:10;" d="
				M92.718,320.929c1.509-8.314,11.511-13.46,22.353-11.492"/>
			<path style="fill:none;stroke:#000000;stroke-width:3;stroke-linecap:round;stroke-linejoin:round;stroke-miterlimit:10;" d="
				M92.718,320.929c-2.09,11.515,1.847,21.853,8.813,23.117"/>
			<path style="fill:none;stroke:#000000;stroke-width:3;stroke-linecap:round;stroke-linejoin:round;stroke-miterlimit:10;" d="
				M126.008,336.014c-1.464,8.062-15.069,9.74-24.477,8.032"/>
			<path style="fill:none;stroke:#000000;stroke-width:3;stroke-linecap:round;stroke-linejoin:round;stroke-miterlimit:10;" d="
				M126.008,336.014c0.265-1.459,1.28-1.978,6.802-0.976"/>
			<path style="fill:none;stroke:#000000;stroke-width:3;stroke-linecap:round;stroke-linejoin:round;stroke-miterlimit:10;" d="
				M151.666,334.595c-0.074,0.408-7.878,2.437-18.855,0.443"/>
			
				<line style="fill:none;stroke:#000000;stroke-width:3;stroke-linecap:round;stroke-linejoin:round;stroke-miterlimit:10;" x1="151.666" y1="334.595" x2="174.694" y2="325.827"/>
			
				<line style="fill:none;stroke:#000000;stroke-width:3;stroke-linecap:round;stroke-linejoin:round;stroke-miterlimit:10;" x1="175.109" y1="325.139" x2="190.937" y2="294.632"/>
		</g>
	</g>
	<g>
		<path style="fill:#F9ED32;" d="M172.49,121.719v-0.01c11.81-15.1,18.84-34.12,18.84-54.79c-20.32,0-39.05,6.8-54.02,18.25h-0.01
			c-6.92,5.29-13.04,11.57-18.14,18.63c-10.59,14.64-16.83,32.65-16.83,52.12c18.44,0,35.57-5.6,49.77-15.19
			C159.85,135.5,166.73,129.08,172.49,121.719z M143.61,244.02c-12.54,1.011-24.48,2.48-35.61,4.341
			c-12.05,2.029-23.16,4.52-33.07,7.39c-11.52,3.35-21.43,7.21-29.33,11.49c-9.98,5.39-16.76,11.42-19.53,17.85
			c-0.93,2.16-1.41,4.36-1.41,6.59C12.69,291.68,3,285.57,3,278.01c0-11.05,4.65-20,10.39-20c0-0.8,0-4.54,0-9.24
			C13.39,112.919,107.56,3,223.93,3c59.49,0,113.301,23.88,152.24,62.52c38.94,38.63,63.01,92.02,63.01,151.04
			c0,139.9-135.16,266.464-250.436,245.535c-57.696-10.475-102.947-26.816-101.183-36.532c-4.229,1.744-17.361,0.094-17.336-0.044
			c-9.64-1.75-16.728-7.084-15.851-11.918c1.822-10.035,7.336-17.423,12.336-16.515c9.921,1.801,19.969,1.195,29.928-1.568
			c8.65-2.387,17.235-6.403,25.614-11.874c6.822-4.447,13.508-9.854,19.982-16.131c7.382-7.148,14.491-15.432,21.227-24.695
			c4.95-6.815,9.698-14.172,14.194-22.015c17.271-30.083,30.674-62.353,30.674-104.793c0,9.31-4.73,17.49-11.89,22.18
			c-4.07,2.681-8.91,4.23-14.11,4.23H184c-3.34,0-6.65,0.029-9.93,0.09C163.61,242.71,153.42,243.22,143.61,244.02z"/>
		<path style="fill:#C9C9C9;" d="M83.224,367.256l13.414,28.262c-9.959,2.764-20.007,3.369-29.928,1.568l-8.542-22.736
			l22.494-12.491L83.224,367.256z"/>
		<path style="fill:#C9C9C9;" d="M143.61,244.02c9.81-0.8,20-1.31,30.46-1.51l0.01,0.32l2.74,11.87l0.51,2.22l-29.88,6.12
			L143.61,244.02z"/>
		<path style="fill:#C9C9C9;" d="M147.83,264.92l-33.78,8.23L108,248.36c11.13-1.86,23.07-3.33,35.61-4.341l3.84,19.021
			L147.83,264.92z"/>
		<path style="fill:#C9C9C9;" d="M196.44,238.199l4.39,9.461l-24.01,7.04l-2.74-11.87l-0.01-0.32c3.28-0.061,6.59-0.09,9.93-0.09
			h-1.67c5.2,0,10.04-1.55,14.11-4.23V238.199z"/>
		<path style="fill:#C9C9C9;" d="M158.733,332.919l18.923-12.116c-4.496,7.843-9.244,15.199-14.194,22.015L158.733,332.919z"/>
		<path style="fill:#F1F2F2;" d="M191.33,66.919c0,20.67-7.03,39.69-18.84,54.79c-0.01-21.14-16.37-36.53-35.18-36.54
			C152.28,73.719,171.01,66.919,191.33,66.919z"/>
		<path style="fill:#C9C9C9;" d="M158.733,332.919l4.729,9.898c-6.736,9.264-13.845,17.547-21.227,24.695l-10.45-22.038
			l26.124-14.293L158.733,332.919z"/>
		<path style="fill:#006838;" d="M172.49,121.709v0.01c-5.76,7.36-12.64,13.78-20.39,19.01c0-20.41-14.72-36.92-32.94-36.93
			c5.1-7.06,11.22-13.34,18.14-18.63h0.01C156.12,85.179,172.48,100.569,172.49,121.709z"/>
		<path style="fill:#C9C9C9;" d="M131.785,345.475l10.45,22.038c-6.474,6.277-13.16,11.684-19.982,16.132l-11.549-26.629
			l20.45-12.861L131.785,345.475z"/>
		<path style="fill:#C9C9C9;" d="M110.704,357.016l11.549,26.629c-8.379,5.47-16.964,9.486-25.614,11.873l-13.414-28.262l25.7-14.33
			L110.704,357.016z"/>
		<path d="M119.16,103.799c18.22,0.01,32.94,16.52,32.94,36.93c-14.2,9.59-31.33,15.19-49.77,15.19
			C102.33,136.449,108.57,118.439,119.16,103.799z"/>
		<path style="fill:#C9C9C9;" d="M114.05,273.15l1.28,5.27l-31.65,10.24l-8.75-32.9v-0.01c9.91-2.87,21.02-5.36,33.07-7.39
			L114.05,273.15z"/>
		<path style="fill:#C9C9C9;" d="M83.68,288.66l1.4,5.26l-25.99,14.01L45.6,267.24c7.9-4.28,17.81-8.141,29.33-11.49v0.01
			L83.68,288.66z"/>
		<path style="fill:#C9C9C9;" d="M59.09,307.93l1.74,5.24l-20.5,11l-14.25-39.08h-0.01c2.77-6.43,9.55-12.46,19.53-17.85
			L59.09,307.93z"/>
		<path style="fill:none;stroke:#000000;stroke-width:6;stroke-linecap:round;stroke-linejoin:round;stroke-miterlimit:10;" d="
			M13.39,248.77C13.39,112.919,107.56,3,223.93,3c59.49,0,113.301,23.88,152.24,62.52c38.94,38.63,63.01,92.02,63.01,151.04
			c0,139.9-135.16,266.464-250.436,245.535c-57.696-10.475-102.947-26.816-101.183-36.532c-4.229,1.744-17.361,0.094-17.336-0.044
			c-9.64-1.75-16.728-7.084-15.851-11.918c1.822-10.035,7.336-17.423,12.336-16.515c9.921,1.801,19.969,1.195,29.928-1.568
			c8.65-2.387,17.235-6.403,25.614-11.874c6.822-4.447,13.508-9.854,19.982-16.131c7.382-7.148,14.491-15.432,21.227-24.695
			c4.95-6.815,9.698-14.172,14.194-22.015c17.271-30.083,30.674-62.353,30.674-104.793c0,9.31-4.73,17.49-11.89,22.18
			c-4.07,2.681-8.91,4.23-14.11,4.23H184c-3.34,0-6.65,0.029-9.93,0.09c-10.46,0.2-20.65,0.71-30.46,1.51
			c-12.54,1.011-24.48,2.48-35.61,4.341c-12.05,2.029-23.16,4.52-33.07,7.39c-11.52,3.35-21.43,7.21-29.33,11.49
			c-9.98,5.39-16.76,11.42-19.53,17.85c-0.93,2.16-1.41,4.36-1.41,6.59C12.69,291.68,3,285.57,3,278.01c0-11.05,4.65-20,10.39-20"/>
		<path style="fill:none;stroke:#000000;stroke-width:6;stroke-linecap:round;stroke-linejoin:round;stroke-miterlimit:10;" d="
			M13.39,248.77c0,4.7,0,8.44,0,9.24"/>
		<path style="fill:none;stroke:#000000;stroke-width:3;stroke-linecap:round;stroke-linejoin:bevel;stroke-miterlimit:10;" d="
			M172.49,121.709c-0.01-21.14-16.37-36.53-35.18-36.54"/>
		<path style="fill:none;stroke:#000000;stroke-width:3;stroke-linecap:round;stroke-linejoin:bevel;stroke-miterlimit:10;" d="
			M191.33,66.919"/>
		<path style="fill:none;stroke:#000000;stroke-width:3;stroke-linecap:round;stroke-linejoin:bevel;stroke-miterlimit:10;" d="
			M119.16,103.799"/>
		<path style="fill:none;stroke:#000000;stroke-width:3;stroke-linecap:round;stroke-linejoin:bevel;stroke-miterlimit:10;" d="
			M102.33,155.919"/>
		<path style="fill:none;stroke:#000000;stroke-width:3;stroke-linecap:round;stroke-linejoin:bevel;stroke-miterlimit:10;" d="
			M191.33,66.919c0,20.67-7.03,39.69-18.84,54.79v0.01c-5.76,7.36-12.64,13.78-20.39,19.01c-14.2,9.59-31.33,15.19-49.77,15.19"/>
		<path style="fill:none;stroke:#000000;stroke-width:3;stroke-linecap:round;stroke-linejoin:bevel;stroke-miterlimit:10;" d="
			M152.1,140.729c0-20.41-14.72-36.92-32.94-36.93h-0.01"/>
		
			<line style="fill:none;stroke:#000000;stroke-width:4;stroke-linecap:round;stroke-miterlimit:10;" x1="200.83" y1="247.66" x2="196.44" y2="238.199"/>
		
			<line style="fill:none;stroke:#000000;stroke-width:4;stroke-linecap:round;stroke-miterlimit:10;" x1="26.08" y1="285.09" x2="40.33" y2="324.17"/>
		
			<line style="fill:none;stroke:#000000;stroke-width:4;stroke-linecap:round;stroke-miterlimit:10;" x1="40.33" y1="324.17" x2="60.83" y2="313.17"/>
		<polyline style="fill:none;stroke:#000000;stroke-width:4;stroke-linecap:round;stroke-miterlimit:10;" points="60.83,313.17 
			59.09,307.93 45.6,267.24 		"/>
		
			<line style="fill:none;stroke:#000000;stroke-width:4;stroke-linecap:round;stroke-miterlimit:10;" x1="59.09" y1="307.93" x2="85.08" y2="293.92"/>
		<polyline style="fill:none;stroke:#000000;stroke-width:4;stroke-linecap:round;stroke-miterlimit:10;" points="85.08,293.92 
			83.68,288.66 74.93,255.76 		"/>
		
			<line style="fill:none;stroke:#000000;stroke-width:4;stroke-linecap:round;stroke-miterlimit:10;" x1="83.68" y1="288.66" x2="115.33" y2="278.42"/>
		<polyline style="fill:none;stroke:#000000;stroke-width:4;stroke-linecap:round;stroke-miterlimit:10;" points="115.33,278.42 
			114.05,273.15 108,248.36 107.83,247.66 		"/>
		
			<line style="fill:none;stroke:#000000;stroke-width:4;stroke-linecap:round;stroke-miterlimit:10;" x1="114.05" y1="273.15" x2="147.83" y2="264.92"/>
		<polyline style="fill:none;stroke:#000000;stroke-width:4;stroke-linecap:round;stroke-miterlimit:10;" points="147.83,264.92 
			147.45,263.04 143.61,244.02 143.61,244.01 		"/>
		
			<line style="fill:none;stroke:#000000;stroke-width:4;stroke-linecap:round;stroke-miterlimit:10;" x1="147.45" y1="263.04" x2="177.33" y2="256.92"/>
		<polyline style="fill:none;stroke:#000000;stroke-width:4;stroke-linecap:round;stroke-miterlimit:10;" points="177.33,256.92 
			176.82,254.7 174.08,242.83 		"/>
		
			<line style="fill:none;stroke:#000000;stroke-width:4;stroke-linecap:round;stroke-miterlimit:10;" x1="176.82" y1="254.7" x2="200.83" y2="247.66"/>
		
			<line style="fill:none;stroke:#000000;stroke-width:4;stroke-linecap:round;stroke-miterlimit:10;" x1="66.71" y1="397.086" x2="58.167" y2="374.35"/>
		
			<line style="fill:none;stroke:#000000;stroke-width:4;stroke-linecap:round;stroke-miterlimit:10;" x1="58.167" y1="374.35" x2="80.661" y2="361.858"/>
		<polyline style="fill:none;stroke:#000000;stroke-width:4;stroke-linecap:round;stroke-miterlimit:10;" points="80.661,361.858 
			83.224,367.256 96.638,395.518 		"/>
		
			<line style="fill:none;stroke:#000000;stroke-width:4;stroke-linecap:round;stroke-miterlimit:10;" x1="83.224" y1="367.256" x2="108.924" y2="352.926"/>
		<polyline style="fill:none;stroke:#000000;stroke-width:4;stroke-linecap:round;stroke-miterlimit:10;" points="108.924,352.926 
			110.704,357.016 122.252,383.645 		"/>
		
			<line style="fill:none;stroke:#000000;stroke-width:4;stroke-linecap:round;stroke-miterlimit:10;" x1="110.704" y1="357.016" x2="131.153" y2="344.154"/>
		<polyline style="fill:none;stroke:#000000;stroke-width:4;stroke-linecap:round;stroke-miterlimit:10;" points="131.153,344.154 
			131.785,345.475 142.235,367.513 		"/>
		
			<line style="fill:none;stroke:#000000;stroke-width:4;stroke-linecap:round;stroke-miterlimit:10;" x1="131.785" y1="345.475" x2="157.908" y2="331.182"/>
		<polyline style="fill:none;stroke:#000000;stroke-width:4;stroke-linecap:round;stroke-miterlimit:10;" points="157.908,331.182 
			158.733,332.919 163.462,342.817 		"/>
		
			<line style="fill:none;stroke:#000000;stroke-width:4;stroke-linecap:round;stroke-miterlimit:10;" x1="158.733" y1="332.919" x2="177.656" y2="320.803"/>
		<path style="fill:none;stroke:#000000;stroke-width:3;stroke-linecap:round;stroke-linejoin:bevel;stroke-miterlimit:10;" d="
			M191.33,66.919"/>
		<path style="fill:none;stroke:#000000;stroke-width:3;stroke-linecap:round;stroke-linejoin:bevel;stroke-miterlimit:10;" d="
			M191.33,66.919"/>
		<path style="fill:none;stroke:#000000;stroke-width:3;stroke-linecap:round;stroke-linejoin:bevel;stroke-miterlimit:10;" d="
			M102.33,155.919c0-49.193,39.807-89,89-89"/>
		<g>
			<path style="fill:none;stroke:#000000;stroke-width:3;stroke-miterlimit:10;" d="M238.33,199.919c0-8.015-6.441-14.5-14.402-14.5
				"/>
			<path style="fill:none;stroke:#000000;stroke-width:3;stroke-miterlimit:10;" d="M273.83,202.919c0-23.215-15.878-42-35.5-42"/>
		</g>
	</g>
</g>
<g id="Layer_1">
</g>
</svg>
