<?xml version="1.0" encoding="iso-8859-1"?>
<!-- Generator: Adobe Illustrator 16.0.0, SVG Export Plug-In . SVG Version: 6.00 Build 0)  -->
<!DOCTYPE svg PUBLIC "-//W3C//DTD SVG 1.1//EN" "http://www.w3.org/Graphics/SVG/1.1/DTD/svg11.dtd">
<svg version="1.1" xmlns="http://www.w3.org/2000/svg" xmlns:xlink="http://www.w3.org/1999/xlink" x="0px" y="0px"
	 width="442.18px" height="465.091px" viewBox="0 0 442.18 465.091" style="enable-background:new 0 0 442.18 465.091;"
	 xml:space="preserve">
<g id="_x32_1">
	<g id="XMLID_29_">
		<g>
			<path style="fill:#ED1F24;" d="M167.205,283.224c12.826,2.749,22.802,6.87,22.301,9.209l-16.736,29.856l-0.448,0.68
				l-23.267,7.976c-0.087,0.404-7.943,2.172-18.845-0.164c-5.485-1.176-6.515-0.692-6.824,0.751
				c-1.71,7.978-15.35,9.21-24.693,7.208c-6.918-1.483-10.533-11.9-8.091-23.293c1.764-8.228,11.911-13.027,22.678-10.719
				c10.979,2.353,20.7,0.341,21.737-4.5C137.726,287.594,153.32,280.247,167.205,283.224z"/>
		</g>
		<g>
			<path style="fill:none;stroke:#000000;stroke-width:3;stroke-linecap:round;stroke-linejoin:round;stroke-miterlimit:10;" d="
				M189.506,292.433c0.501-2.339-9.475-6.46-22.301-9.209"/>
			<path style="fill:none;stroke:#000000;stroke-width:3;stroke-linecap:round;stroke-linejoin:round;stroke-miterlimit:10;" d="
				M135.018,300.228c2.708-12.634,18.302-19.98,32.187-17.004"/>
			<path style="fill:none;stroke:#000000;stroke-width:3;stroke-linecap:round;stroke-linejoin:round;stroke-miterlimit:10;" d="
				M135.018,300.228c-1.038,4.841-10.758,6.853-21.737,4.5"/>
			<path style="fill:none;stroke:#000000;stroke-width:3;stroke-linecap:round;stroke-linejoin:round;stroke-miterlimit:10;" d="
				M90.603,315.446c1.764-8.228,11.911-13.027,22.678-10.719"/>
			<path style="fill:none;stroke:#000000;stroke-width:3;stroke-linecap:round;stroke-linejoin:round;stroke-miterlimit:10;" d="
				M90.603,315.446c-2.442,11.393,1.172,21.81,8.091,23.293"/>
			<path style="fill:none;stroke:#000000;stroke-width:3;stroke-linecap:round;stroke-linejoin:round;stroke-miterlimit:10;" d="
				M123.387,331.531c-1.71,7.978-15.35,9.21-24.693,7.208"/>
			<path style="fill:none;stroke:#000000;stroke-width:3;stroke-linecap:round;stroke-linejoin:round;stroke-miterlimit:10;" d="
				M123.387,331.531c0.309-1.443,1.339-1.927,6.824-0.751"/>
			<path style="fill:none;stroke:#000000;stroke-width:3;stroke-linecap:round;stroke-linejoin:round;stroke-miterlimit:10;" d="
				M149.056,330.944c-0.087,0.404-7.943,2.172-18.845-0.164"/>
			
				<line style="fill:none;stroke:#000000;stroke-width:3;stroke-linecap:round;stroke-linejoin:round;stroke-miterlimit:10;" x1="149.056" y1="330.944" x2="172.323" y2="322.969"/>
			
				<line style="fill:none;stroke:#000000;stroke-width:3;stroke-linecap:round;stroke-linejoin:round;stroke-miterlimit:10;" x1="172.771" y1="322.289" x2="189.506" y2="292.433"/>
		</g>
	</g>
	<g>
		<path style="fill:#F9ED32;" d="M172.49,121.719v-0.01c11.81-15.1,18.84-34.12,18.84-54.79c-20.32,0-39.05,6.8-54.02,18.25h-0.01
			c-6.92,5.29-13.04,11.57-18.14,18.63c-10.59,14.64-16.83,32.65-16.83,52.12c18.44,0,35.57-5.6,49.77-15.19
			C159.85,135.5,166.73,129.08,172.49,121.719z M143.61,244.02c-12.54,1.011-24.48,2.48-35.61,4.341
			c-12.05,2.029-23.16,4.52-33.07,7.39c-11.52,3.35-21.43,7.21-29.33,11.49c-9.98,5.39-16.76,11.42-19.53,17.85
			c-0.93,2.16-1.41,4.36-1.41,6.59C12.69,291.68,3,285.57,3,278.01c0-11.05,4.65-20,10.39-20c0-0.8,0-4.54,0-9.24
			C13.39,112.919,107.56,3,223.93,3c59.49,0,113.301,23.88,152.24,62.52c38.94,38.63,63.01,92.02,63.01,151.04
			c0,139.9-142.524,267.015-257.009,242.476c-57.3-12.282-101.991-30.004-99.931-39.617c-4.278,1.6-17.342-0.465-17.313-0.601
			c-9.575-2.053-16.489-7.59-15.464-12.373c2.128-9.929,7.863-17.104,12.829-16.04c9.853,2.111,19.907,1.831,29.938-0.598
			c8.713-2.099,17.411-5.82,25.948-10.994c6.95-4.207,13.794-9.373,20.453-15.413c7.593-6.877,14.947-14.893,21.96-23.896
			c5.153-6.624,10.122-13.793,14.854-21.454c18.175-29.388,32.885-59.599,32.885-102.04c0,9.31-4.73,17.49-11.89,22.18
			c-4.07,2.681-8.91,4.23-14.11,4.23H184c-3.34,0-6.65,0.029-9.93,0.09C163.61,242.71,153.42,243.22,143.61,244.02z"/>
		<path style="fill:#C9C9C9;" d="M79.703,361.246l12.527,28.561c-10.031,2.429-20.085,2.709-29.938,0.597l-7.833-22.904
			l22.85-11.708L79.703,361.246z"/>
		<path style="fill:#C9C9C9;" d="M143.61,244.02c9.81-0.8,20-1.31,30.46-1.51l0.01,0.32l2.74,11.87l0.51,2.22l-29.88,6.12
			L143.61,244.02z"/>
		<path style="fill:#C9C9C9;" d="M147.83,264.92l-33.78,8.23L108,248.36c11.13-1.86,23.07-3.33,35.61-4.341l3.84,19.021
			L147.83,264.92z"/>
		<path style="fill:#C9C9C9;" d="M196.44,238.199l4.39,9.461l-24.01,7.04l-2.74-11.87l-0.01-0.32c3.28-0.061,6.59-0.09,9.93-0.09
			h-1.67c5.2,0,10.04-1.55,14.11-4.23V238.199z"/>
		<path style="fill:#C9C9C9;" d="M156.173,329.498l19.272-11.449c-4.732,7.661-9.701,14.83-14.854,21.454L156.173,329.498z"/>
		<path style="fill:#F1F2F2;" d="M191.33,66.919c0,20.67-7.03,39.69-18.84,54.79c-0.01-21.14-16.37-36.53-35.18-36.54
			C152.28,73.719,171.01,66.919,191.33,66.919z"/>
		<path style="fill:#C9C9C9;" d="M156.173,329.498l4.418,10.005c-7.013,9.004-14.367,17.02-21.96,23.896l-9.759-22.271l26.53-13.385
			L156.173,329.498z"/>
		<path style="fill:#006838;" d="M172.49,121.709v0.01c-5.76,7.36-12.64,13.78-20.39,19.01c0-20.41-14.72-36.92-32.94-36.93
			c5.1-7.06,11.22-13.34,18.14-18.63h0.01C156.12,85.179,172.48,100.569,172.49,121.709z"/>
		<path style="fill:#C9C9C9;" d="M128.872,341.128l9.759,22.271c-6.659,6.04-13.503,11.206-20.453,15.413l-10.715-26.874
			l20.819-12.145L128.872,341.128z"/>
		<path style="fill:#C9C9C9;" d="M107.462,351.938l10.715,26.874c-8.537,5.174-17.235,8.896-25.948,10.994l-12.527-28.561
			l26.108-13.437L107.462,351.938z"/>
		<path d="M119.16,103.799c18.22,0.01,32.94,16.52,32.94,36.93c-14.2,9.59-31.33,15.19-49.77,15.19
			C102.33,136.449,108.57,118.439,119.16,103.799z"/>
		<path style="fill:#C9C9C9;" d="M114.05,273.15l1.28,5.27l-31.65,10.24l-8.75-32.9v-0.01c9.91-2.87,21.02-5.36,33.07-7.39
			L114.05,273.15z"/>
		<path style="fill:#C9C9C9;" d="M83.68,288.66l1.4,5.26l-25.99,14.01L45.6,267.24c7.9-4.28,17.81-8.141,29.33-11.49v0.01
			L83.68,288.66z"/>
		<path style="fill:#C9C9C9;" d="M59.09,307.93l1.74,5.24l-20.5,11l-14.25-39.08h-0.01c2.77-6.43,9.55-12.46,19.53-17.85
			L59.09,307.93z"/>
		<path style="fill:none;stroke:#000000;stroke-width:6;stroke-linecap:round;stroke-linejoin:round;stroke-miterlimit:10;" d="
			M13.39,248.77C13.39,112.919,107.56,3,223.93,3c59.49,0,113.301,23.88,152.24,62.52c38.94,38.63,63.01,92.02,63.01,151.04
			c0,139.9-142.524,267.015-257.009,242.476c-57.3-12.282-101.991-30.004-99.931-39.617c-4.278,1.6-17.342-0.465-17.313-0.601
			c-9.575-2.053-16.489-7.59-15.464-12.373c2.128-9.929,7.863-17.104,12.829-16.04c9.853,2.111,19.907,1.831,29.938-0.598
			c8.713-2.099,17.411-5.82,25.948-10.994c6.95-4.207,13.794-9.373,20.453-15.413c7.593-6.877,14.947-14.893,21.96-23.896
			c5.153-6.624,10.122-13.793,14.854-21.454c18.175-29.388,32.885-59.599,32.885-102.04c0,9.31-4.73,17.49-11.89,22.18
			c-4.07,2.681-8.91,4.23-14.11,4.23H184c-3.34,0-6.65,0.029-9.93,0.09c-10.46,0.2-20.65,0.71-30.46,1.51
			c-12.54,1.011-24.48,2.48-35.61,4.341c-12.05,2.029-23.16,4.52-33.07,7.39c-11.52,3.35-21.43,7.21-29.33,11.49
			c-9.98,5.39-16.76,11.42-19.53,17.85c-0.93,2.16-1.41,4.36-1.41,6.59C12.69,291.68,3,285.57,3,278.01c0-11.05,4.65-20,10.39-20"/>
		<path style="fill:none;stroke:#000000;stroke-width:6;stroke-linecap:round;stroke-linejoin:round;stroke-miterlimit:10;" d="
			M13.39,248.77c0,4.7,0,8.44,0,9.24"/>
		<path style="fill:none;stroke:#000000;stroke-width:3;stroke-linecap:round;stroke-linejoin:bevel;stroke-miterlimit:10;" d="
			M172.49,121.709c-0.01-21.14-16.37-36.53-35.18-36.54"/>
		<path style="fill:none;stroke:#000000;stroke-width:3;stroke-linecap:round;stroke-linejoin:bevel;stroke-miterlimit:10;" d="
			M191.33,66.919"/>
		<path style="fill:none;stroke:#000000;stroke-width:3;stroke-linecap:round;stroke-linejoin:bevel;stroke-miterlimit:10;" d="
			M119.16,103.799"/>
		<path style="fill:none;stroke:#000000;stroke-width:3;stroke-linecap:round;stroke-linejoin:bevel;stroke-miterlimit:10;" d="
			M102.33,155.919"/>
		<path style="fill:none;stroke:#000000;stroke-width:3;stroke-linecap:round;stroke-linejoin:bevel;stroke-miterlimit:10;" d="
			M191.33,66.919c0,20.67-7.03,39.69-18.84,54.79v0.01c-5.76,7.36-12.64,13.78-20.39,19.01c-14.2,9.59-31.33,15.19-49.77,15.19"/>
		<path style="fill:none;stroke:#000000;stroke-width:3;stroke-linecap:round;stroke-linejoin:bevel;stroke-miterlimit:10;" d="
			M152.1,140.729c0-20.41-14.72-36.92-32.94-36.93h-0.01"/>
		
			<line style="fill:none;stroke:#000000;stroke-width:4;stroke-linecap:round;stroke-miterlimit:10;" x1="200.83" y1="247.66" x2="196.44" y2="238.199"/>
		
			<line style="fill:none;stroke:#000000;stroke-width:4;stroke-linecap:round;stroke-miterlimit:10;" x1="26.08" y1="285.09" x2="40.33" y2="324.17"/>
		
			<line style="fill:none;stroke:#000000;stroke-width:4;stroke-linecap:round;stroke-miterlimit:10;" x1="40.33" y1="324.17" x2="60.83" y2="313.17"/>
		<polyline style="fill:none;stroke:#000000;stroke-width:4;stroke-linecap:round;stroke-miterlimit:10;" points="60.83,313.17 
			59.09,307.93 45.6,267.24 		"/>
		
			<line style="fill:none;stroke:#000000;stroke-width:4;stroke-linecap:round;stroke-miterlimit:10;" x1="59.09" y1="307.93" x2="85.08" y2="293.92"/>
		<polyline style="fill:none;stroke:#000000;stroke-width:4;stroke-linecap:round;stroke-miterlimit:10;" points="85.08,293.92 
			83.68,288.66 74.93,255.76 		"/>
		
			<line style="fill:none;stroke:#000000;stroke-width:4;stroke-linecap:round;stroke-miterlimit:10;" x1="83.68" y1="288.66" x2="115.33" y2="278.42"/>
		<polyline style="fill:none;stroke:#000000;stroke-width:4;stroke-linecap:round;stroke-miterlimit:10;" points="115.33,278.42 
			114.05,273.15 108,248.36 107.83,247.66 		"/>
		
			<line style="fill:none;stroke:#000000;stroke-width:4;stroke-linecap:round;stroke-miterlimit:10;" x1="114.05" y1="273.15" x2="147.83" y2="264.92"/>
		<polyline style="fill:none;stroke:#000000;stroke-width:4;stroke-linecap:round;stroke-miterlimit:10;" points="147.83,264.92 
			147.45,263.04 143.61,244.02 143.61,244.01 		"/>
		
			<line style="fill:none;stroke:#000000;stroke-width:4;stroke-linecap:round;stroke-miterlimit:10;" x1="147.45" y1="263.04" x2="177.33" y2="256.92"/>
		<polyline style="fill:none;stroke:#000000;stroke-width:4;stroke-linecap:round;stroke-miterlimit:10;" points="177.33,256.92 
			176.82,254.7 174.08,242.83 		"/>
		
			<line style="fill:none;stroke:#000000;stroke-width:4;stroke-linecap:round;stroke-miterlimit:10;" x1="176.82" y1="254.7" x2="200.83" y2="247.66"/>
		
			<line style="fill:none;stroke:#000000;stroke-width:4;stroke-linecap:round;stroke-miterlimit:10;" x1="62.292" y1="390.403" x2="54.459" y2="367.499"/>
		
			<line style="fill:none;stroke:#000000;stroke-width:4;stroke-linecap:round;stroke-miterlimit:10;" x1="54.459" y1="367.499" x2="77.309" y2="355.791"/>
		<polyline style="fill:none;stroke:#000000;stroke-width:4;stroke-linecap:round;stroke-miterlimit:10;" points="77.309,355.791 
			79.703,361.246 92.23,389.807 		"/>
		
			<line style="fill:none;stroke:#000000;stroke-width:4;stroke-linecap:round;stroke-miterlimit:10;" x1="79.703" y1="361.246" x2="105.812" y2="347.81"/>
		<polyline style="fill:none;stroke:#000000;stroke-width:4;stroke-linecap:round;stroke-miterlimit:10;" points="105.812,347.81 
			107.462,351.938 118.178,378.813 		"/>
		
			<line style="fill:none;stroke:#000000;stroke-width:4;stroke-linecap:round;stroke-miterlimit:10;" x1="107.462" y1="351.938" x2="128.282" y2="339.794"/>
		<polyline style="fill:none;stroke:#000000;stroke-width:4;stroke-linecap:round;stroke-miterlimit:10;" points="128.282,339.794 
			128.872,341.128 138.631,363.399 		"/>
		
			<line style="fill:none;stroke:#000000;stroke-width:4;stroke-linecap:round;stroke-miterlimit:10;" x1="128.872" y1="341.128" x2="155.402" y2="327.743"/>
		<polyline style="fill:none;stroke:#000000;stroke-width:4;stroke-linecap:round;stroke-miterlimit:10;" points="155.402,327.743 
			156.173,329.498 160.591,339.503 		"/>
		
			<line style="fill:none;stroke:#000000;stroke-width:4;stroke-linecap:round;stroke-miterlimit:10;" x1="156.173" y1="329.498" x2="175.445" y2="318.049"/>
		<path style="fill:none;stroke:#000000;stroke-width:3;stroke-linecap:round;stroke-linejoin:bevel;stroke-miterlimit:10;" d="
			M191.33,66.919"/>
		<path style="fill:none;stroke:#000000;stroke-width:3;stroke-linecap:round;stroke-linejoin:bevel;stroke-miterlimit:10;" d="
			M191.33,66.919"/>
		<path style="fill:none;stroke:#000000;stroke-width:3;stroke-linecap:round;stroke-linejoin:bevel;stroke-miterlimit:10;" d="
			M102.33,155.919c0-49.193,39.807-89,89-89"/>
		<g>
			<path style="fill:none;stroke:#000000;stroke-width:3;stroke-miterlimit:10;" d="M238.33,199.919c0-8.015-6.441-14.5-14.402-14.5
				"/>
			<path style="fill:none;stroke:#000000;stroke-width:3;stroke-miterlimit:10;" d="M273.83,202.919c0-23.215-15.878-42-35.5-42"/>
		</g>
	</g>
</g>
<g id="Layer_1">
</g>
</svg>
