<?xml version="1.0" encoding="iso-8859-1"?>
<!-- Generator: Adobe Illustrator 16.0.0, SVG Export Plug-In . SVG Version: 6.00 Build 0)  -->
<!DOCTYPE svg PUBLIC "-//W3C//DTD SVG 1.1//EN" "http://www.w3.org/Graphics/SVG/1.1/DTD/svg11.dtd">
<svg version="1.1" xmlns="http://www.w3.org/2000/svg" xmlns:xlink="http://www.w3.org/1999/xlink" x="0px" y="0px"
	 width="442.18px" height="459.278px" viewBox="0 0 442.18 459.278" style="enable-background:new 0 0 442.18 459.278;"
	 xml:space="preserve">
<g id="_x32_3">
	<g id="XMLID_27_">
		<g>
			<path style="fill:#ED1F24;" d="M165.996,276.854c12.593,3.534,22.268,8.241,21.629,10.518l-18.441,28.409l-0.486,0.642
				l-23.623,6.388c-0.11,0.393-8.031,1.637-18.734-1.368c-5.385-1.512-6.438-1.1-6.833,0.306c-2.18,7.767-15.821,8.112-24.994,5.537
				c-6.792-1.906-9.762-12.423-6.648-23.516c2.249-8.01,12.63-12.1,23.201-9.133c10.779,3.025,20.569,1.66,21.892-3.052
				C136.412,279.283,152.364,273.027,165.996,276.854z"/>
		</g>
		<g>
			<path style="fill:none;stroke:#000000;stroke-width:3;stroke-linecap:round;stroke-linejoin:round;stroke-miterlimit:10;" d="
				M187.625,287.372c0.639-2.276-9.036-6.983-21.629-10.518"/>
			<path style="fill:none;stroke:#000000;stroke-width:3;stroke-linecap:round;stroke-linejoin:round;stroke-miterlimit:10;" d="
				M132.959,291.585c3.453-12.302,19.405-18.558,33.037-14.73"/>
			<path style="fill:none;stroke:#000000;stroke-width:3;stroke-linecap:round;stroke-linejoin:round;stroke-miterlimit:10;" d="
				M132.959,291.585c-1.323,4.712-11.112,6.077-21.892,3.052"/>
			<path style="fill:none;stroke:#000000;stroke-width:3;stroke-linecap:round;stroke-linejoin:round;stroke-miterlimit:10;" d="
				M87.867,303.77c2.249-8.01,12.63-12.1,23.201-9.133"/>
			<path style="fill:none;stroke:#000000;stroke-width:3;stroke-linecap:round;stroke-linejoin:round;stroke-miterlimit:10;" d="
				M87.867,303.77c-3.114,11.093-0.145,21.609,6.648,23.516"/>
			<path style="fill:none;stroke:#000000;stroke-width:3;stroke-linecap:round;stroke-linejoin:round;stroke-miterlimit:10;" d="
				M119.509,321.748c-2.18,7.767-15.821,8.112-24.994,5.537"/>
			<path style="fill:none;stroke:#000000;stroke-width:3;stroke-linecap:round;stroke-linejoin:round;stroke-miterlimit:10;" d="
				M119.509,321.748c0.395-1.405,1.448-1.817,6.833-0.306"/>
			<path style="fill:none;stroke:#000000;stroke-width:3;stroke-linecap:round;stroke-linejoin:round;stroke-miterlimit:10;" d="
				M145.076,322.811c-0.11,0.393-8.031,1.637-18.734-1.368"/>
			
				<line style="fill:none;stroke:#000000;stroke-width:3;stroke-linecap:round;stroke-linejoin:round;stroke-miterlimit:10;" x1="145.076" y1="322.811" x2="168.698" y2="316.423"/>
			
				<line style="fill:none;stroke:#000000;stroke-width:3;stroke-linecap:round;stroke-linejoin:round;stroke-miterlimit:10;" x1="169.184" y1="315.781" x2="187.625" y2="287.372"/>
		</g>
	</g>
	<g>
		<path style="fill:#F9ED32;" d="M172.49,121.719v-0.01c11.81-15.1,18.84-34.12,18.84-54.79c-20.32,0-39.05,6.8-54.02,18.25h-0.01
			c-6.92,5.29-13.04,11.57-18.14,18.63c-10.59,14.64-16.83,32.65-16.83,52.12c18.44,0,35.57-5.6,49.77-15.19
			C159.85,135.5,166.73,129.08,172.49,121.719z M143.61,244.02c-12.54,1.011-24.48,2.48-35.61,4.341
			c-12.05,2.029-23.16,4.52-33.07,7.39c-11.52,3.35-21.43,7.21-29.33,11.49c-9.98,5.39-16.76,11.42-19.53,17.85
			c-0.93,2.16-1.41,4.36-1.41,6.59C12.69,291.68,3,285.57,3,278.01c0-11.05,4.65-20,10.39-20c0-0.8,0-4.54,0-9.24
			C13.39,112.919,107.56,3,223.93,3c59.49,0,113.301,23.88,152.24,62.52c38.94,38.63,63.01,92.02,63.01,151.04
			c0,139.9-156.471,266.39-268.87,234.841c-56.256-15.791-99.644-36.146-97.016-45.506c-4.352,1.305-17.222-1.568-17.184-1.701
			c-9.4-2.639-15.945-8.547-14.638-13.205c2.714-9.667,8.849-16.386,13.724-15.017c9.673,2.716,19.691,3.081,29.814,1.324
			c8.792-1.515,17.667-4.633,26.47-9.195c7.166-3.709,14.284-8.372,21.27-13.91c7.965-6.305,15.762-13.748,23.279-22.189
			c5.523-6.212,10.897-12.972,16.064-20.233c19.844-27.853,36.237-53.317,36.237-95.758c0,9.31-4.73,17.491-11.89,22.18
			c-4.07,2.681-8.91,4.23-14.11,4.23H184c-3.34,0-6.65,0.029-9.93,0.09C163.61,242.71,153.42,243.22,143.61,244.02z"/>
		<path style="fill:#C9C9C9;" d="M74.266,348.296l10.744,29c-10.124,1.757-20.141,1.392-29.814-1.325l-6.414-23.114l23.431-10.1
			L74.266,348.296z"/>
		<path style="fill:#C9C9C9;" d="M143.61,244.02c9.81-0.8,20-1.31,30.46-1.51l0.01,0.32l2.74,11.87l0.51,2.22l-29.88,6.12
			L143.61,244.02z"/>
		<path style="fill:#C9C9C9;" d="M147.83,264.92l-33.78,8.23L108,248.36c11.13-1.86,23.07-3.33,35.61-4.341l3.84,19.021
			L147.83,264.92z"/>
		<path style="fill:#C9C9C9;" d="M196.44,238.199l4.39,9.461l-24.01,7.04l-2.74-11.87l-0.01-0.32c3.28-0.061,6.59-0.09,9.93-0.09
			h-1.67c5.2,0,10.04-1.55,14.11-4.23V238.199z"/>
		<path style="fill:#C9C9C9;" d="M152.236,321.84l19.857-10.071c-5.167,7.261-10.54,14.021-16.064,20.232L152.236,321.84z"/>
		<path style="fill:#F1F2F2;" d="M191.33,66.919c0,20.67-7.03,39.69-18.84,54.79c-0.01-21.14-16.37-36.53-35.18-36.54
			C152.28,73.719,171.01,66.919,191.33,66.919z"/>
		<path style="fill:#C9C9C9;" d="M152.236,321.84l3.793,10.161c-7.517,8.441-15.313,15.885-23.279,22.189l-8.368-22.612
			l27.192-11.521L152.236,321.84z"/>
		<path style="fill:#006838;" d="M172.49,121.709v0.01c-5.76,7.36-12.64,13.78-20.39,19.01c0-20.41-14.72-36.92-32.94-36.93
			c5.1-7.06,11.22-13.34,18.14-18.63h0.01C156.12,85.179,172.48,100.569,172.49,121.709z"/>
		<path style="fill:#C9C9C9;" d="M124.382,331.578l8.368,22.612c-6.986,5.538-14.104,10.201-21.27,13.91l-9.043-27.22l21.438-10.659
			L124.382,331.578z"/>
		<path style="fill:#C9C9C9;" d="M102.437,340.881l9.043,27.22c-8.803,4.563-17.678,7.68-26.47,9.195l-10.744-29l26.777-11.597
			L102.437,340.881z"/>
		<path d="M119.16,103.799c18.22,0.01,32.94,16.52,32.94,36.93c-14.2,9.59-31.33,15.19-49.77,15.19
			C102.33,136.449,108.57,118.439,119.16,103.799z"/>
		<path style="fill:#C9C9C9;" d="M114.05,273.15l1.28,5.27l-31.65,10.24l-8.75-32.9v-0.01c9.91-2.87,21.02-5.36,33.07-7.39
			L114.05,273.15z"/>
		<path style="fill:#C9C9C9;" d="M83.68,288.66l1.4,5.26l-25.99,14.01L45.6,267.24c7.9-4.28,17.81-8.141,29.33-11.49v0.01
			L83.68,288.66z"/>
		<path style="fill:#C9C9C9;" d="M59.09,307.93l1.74,5.24l-20.5,11l-14.25-39.08h-0.01c2.77-6.43,9.55-12.46,19.53-17.85
			L59.09,307.93z"/>
		<path style="fill:none;stroke:#000000;stroke-width:6;stroke-linecap:round;stroke-linejoin:round;stroke-miterlimit:10;" d="
			M13.39,248.77C13.39,112.919,107.56,3,223.93,3c59.49,0,113.301,23.88,152.24,62.52c38.94,38.63,63.01,92.02,63.01,151.04
			c0,139.9-156.471,266.39-268.87,234.841c-56.256-15.791-99.644-36.146-97.016-45.506c-4.352,1.305-17.222-1.568-17.184-1.701
			c-9.4-2.639-15.945-8.547-14.638-13.205c2.714-9.667,8.849-16.386,13.724-15.017c9.673,2.716,19.691,3.081,29.814,1.324
			c8.792-1.515,17.667-4.633,26.47-9.195c7.166-3.709,14.284-8.372,21.27-13.91c7.965-6.305,15.762-13.748,23.279-22.189
			c5.523-6.212,10.897-12.972,16.064-20.233c19.844-27.853,36.237-53.317,36.237-95.758c0,9.31-4.73,17.491-11.89,22.18
			c-4.07,2.681-8.91,4.23-14.11,4.23H184c-3.34,0-6.65,0.029-9.93,0.09c-10.46,0.2-20.65,0.71-30.46,1.51
			c-12.54,1.011-24.48,2.48-35.61,4.341c-12.05,2.029-23.16,4.52-33.07,7.39c-11.52,3.35-21.43,7.21-29.33,11.49
			c-9.98,5.39-16.76,11.42-19.53,17.85c-0.93,2.16-1.41,4.36-1.41,6.59C12.69,291.68,3,285.57,3,278.01c0-11.05,4.65-20,10.39-20"/>
		<path style="fill:none;stroke:#000000;stroke-width:6;stroke-linecap:round;stroke-linejoin:round;stroke-miterlimit:10;" d="
			M13.39,248.77c0,4.7,0,8.44,0,9.24"/>
		<path style="fill:none;stroke:#000000;stroke-width:3;stroke-linecap:round;stroke-linejoin:bevel;stroke-miterlimit:10;" d="
			M172.49,121.709c-0.01-21.14-16.37-36.53-35.18-36.54"/>
		<path style="fill:none;stroke:#000000;stroke-width:3;stroke-linecap:round;stroke-linejoin:bevel;stroke-miterlimit:10;" d="
			M191.33,66.919"/>
		<path style="fill:none;stroke:#000000;stroke-width:3;stroke-linecap:round;stroke-linejoin:bevel;stroke-miterlimit:10;" d="
			M119.16,103.799"/>
		<path style="fill:none;stroke:#000000;stroke-width:3;stroke-linecap:round;stroke-linejoin:bevel;stroke-miterlimit:10;" d="
			M102.33,155.919"/>
		<path style="fill:none;stroke:#000000;stroke-width:3;stroke-linecap:round;stroke-linejoin:bevel;stroke-miterlimit:10;" d="
			M191.33,66.919c0,20.67-7.03,39.69-18.84,54.79v0.01c-5.76,7.36-12.64,13.78-20.39,19.01c-14.2,9.59-31.33,15.19-49.77,15.19"/>
		<path style="fill:none;stroke:#000000;stroke-width:3;stroke-linecap:round;stroke-linejoin:bevel;stroke-miterlimit:10;" d="
			M152.1,140.729c0-20.41-14.72-36.92-32.94-36.93h-0.01"/>
		
			<line style="fill:none;stroke:#000000;stroke-width:4;stroke-linecap:round;stroke-miterlimit:10;" x1="200.83" y1="247.66" x2="196.44" y2="238.199"/>
		
			<line style="fill:none;stroke:#000000;stroke-width:4;stroke-linecap:round;stroke-miterlimit:10;" x1="26.08" y1="285.09" x2="40.33" y2="324.17"/>
		
			<line style="fill:none;stroke:#000000;stroke-width:4;stroke-linecap:round;stroke-miterlimit:10;" x1="40.33" y1="324.17" x2="60.83" y2="313.17"/>
		<polyline style="fill:none;stroke:#000000;stroke-width:4;stroke-linecap:round;stroke-miterlimit:10;" points="60.83,313.17 
			59.09,307.93 45.6,267.24 		"/>
		
			<line style="fill:none;stroke:#000000;stroke-width:4;stroke-linecap:round;stroke-miterlimit:10;" x1="59.09" y1="307.93" x2="85.08" y2="293.92"/>
		<polyline style="fill:none;stroke:#000000;stroke-width:4;stroke-linecap:round;stroke-miterlimit:10;" points="85.08,293.92 
			83.68,288.66 74.93,255.76 		"/>
		
			<line style="fill:none;stroke:#000000;stroke-width:4;stroke-linecap:round;stroke-miterlimit:10;" x1="83.68" y1="288.66" x2="115.33" y2="278.42"/>
		<polyline style="fill:none;stroke:#000000;stroke-width:4;stroke-linecap:round;stroke-miterlimit:10;" points="115.33,278.42 
			114.05,273.15 108,248.36 107.83,247.66 		"/>
		
			<line style="fill:none;stroke:#000000;stroke-width:4;stroke-linecap:round;stroke-miterlimit:10;" x1="114.05" y1="273.15" x2="147.83" y2="264.92"/>
		<polyline style="fill:none;stroke:#000000;stroke-width:4;stroke-linecap:round;stroke-miterlimit:10;" points="147.83,264.92 
			147.45,263.04 143.61,244.02 143.61,244.01 		"/>
		
			<line style="fill:none;stroke:#000000;stroke-width:4;stroke-linecap:round;stroke-miterlimit:10;" x1="147.45" y1="263.04" x2="177.33" y2="256.92"/>
		<polyline style="fill:none;stroke:#000000;stroke-width:4;stroke-linecap:round;stroke-miterlimit:10;" points="177.33,256.92 
			176.82,254.7 174.08,242.83 		"/>
		
			<line style="fill:none;stroke:#000000;stroke-width:4;stroke-linecap:round;stroke-miterlimit:10;" x1="176.82" y1="254.7" x2="200.83" y2="247.66"/>
		
			<line style="fill:none;stroke:#000000;stroke-width:4;stroke-linecap:round;stroke-miterlimit:10;" x1="55.196" y1="375.971" x2="48.782" y2="352.856"/>
		
			<line style="fill:none;stroke:#000000;stroke-width:4;stroke-linecap:round;stroke-miterlimit:10;" x1="48.782" y1="352.856" x2="72.213" y2="342.757"/>
		<polyline style="fill:none;stroke:#000000;stroke-width:4;stroke-linecap:round;stroke-miterlimit:10;" points="72.213,342.757 
			74.266,348.296 85.01,377.296 		"/>
		
			<line style="fill:none;stroke:#000000;stroke-width:4;stroke-linecap:round;stroke-miterlimit:10;" x1="74.266" y1="348.296" x2="101.043" y2="336.699"/>
		<polyline style="fill:none;stroke:#000000;stroke-width:4;stroke-linecap:round;stroke-miterlimit:10;" points="101.043,336.699 
			102.437,340.881 111.48,368.101 		"/>
		
			<line style="fill:none;stroke:#000000;stroke-width:4;stroke-linecap:round;stroke-miterlimit:10;" x1="102.437" y1="340.881" x2="123.875" y2="330.222"/>
		<polyline style="fill:none;stroke:#000000;stroke-width:4;stroke-linecap:round;stroke-miterlimit:10;" points="123.875,330.222 
			124.382,331.578 132.75,354.19 		"/>
		
			<line style="fill:none;stroke:#000000;stroke-width:4;stroke-linecap:round;stroke-miterlimit:10;" x1="124.382" y1="331.578" x2="151.574" y2="320.058"/>
		<polyline style="fill:none;stroke:#000000;stroke-width:4;stroke-linecap:round;stroke-miterlimit:10;" points="151.574,320.058 
			152.236,321.84 156.029,332.001 		"/>
		
			<line style="fill:none;stroke:#000000;stroke-width:4;stroke-linecap:round;stroke-miterlimit:10;" x1="152.236" y1="321.84" x2="172.093" y2="311.769"/>
		<path style="fill:none;stroke:#000000;stroke-width:3;stroke-linecap:round;stroke-linejoin:bevel;stroke-miterlimit:10;" d="
			M191.33,66.919"/>
		<path style="fill:none;stroke:#000000;stroke-width:3;stroke-linecap:round;stroke-linejoin:bevel;stroke-miterlimit:10;" d="
			M191.33,66.919"/>
		<path style="fill:none;stroke:#000000;stroke-width:3;stroke-linecap:round;stroke-linejoin:bevel;stroke-miterlimit:10;" d="
			M102.33,155.919c0-49.193,39.807-89,89-89"/>
		<g>
			<path style="fill:none;stroke:#000000;stroke-width:3;stroke-miterlimit:10;" d="M238.33,199.919c0-8.015-6.441-14.5-14.402-14.5
				"/>
			<path style="fill:none;stroke:#000000;stroke-width:3;stroke-miterlimit:10;" d="M273.83,202.919c0-23.215-15.878-42-35.5-42"/>
		</g>
	</g>
</g>
<g id="Layer_1">
</g>
</svg>
