<?xml version="1.0" encoding="iso-8859-1"?>
<!-- Generator: Adobe Illustrator 16.0.0, SVG Export Plug-In . SVG Version: 6.00 Build 0)  -->
<!DOCTYPE svg PUBLIC "-//W3C//DTD SVG 1.1//EN" "http://www.w3.org/Graphics/SVG/1.1/DTD/svg11.dtd">
<svg version="1.1" xmlns="http://www.w3.org/2000/svg" xmlns:xlink="http://www.w3.org/1999/xlink" x="0px" y="0px"
	 width="442.18px" height="450.963px" viewBox="0 0 442.18 450.963" style="enable-background:new 0 0 442.18 450.963;"
	 xml:space="preserve">
<g id="_x32_8">
	<g id="XMLID_22_">
		<g>
			<path style="fill:#ED1F24;" d="M89.44,308.137c-6.427-2.691-8.067-13.352-3.675-23.839c3.172-7.572,13.841-10.318,23.844-6.13
				c10.2,4.272,19.96,4.123,21.826-0.333c4.871-11.629,21.262-15.82,34.161-10.418c11.916,4.99,20.83,10.774,19.929,12.927
				l-21.507,25.588l-0.554,0.569l-23.925,3.39c-0.156,0.372-8.07,0.628-18.198-3.613c-5.099-2.125-6.177-1.858-6.734-0.53
				C111.532,313.09,98.12,311.772,89.44,308.137z"/>
		</g>
		<g>
			<path style="fill:none;stroke:#000000;stroke-width:3;stroke-linecap:round;stroke-linejoin:round;stroke-miterlimit:10;" d="
				M185.525,280.344c0.901-2.152-8.013-7.937-19.929-12.927"/>
			<path style="fill:none;stroke:#000000;stroke-width:3;stroke-linecap:round;stroke-linejoin:round;stroke-miterlimit:10;" d="
				M131.435,277.835c4.871-11.629,21.262-15.82,34.161-10.418"/>
			<path style="fill:none;stroke:#000000;stroke-width:3;stroke-linecap:round;stroke-linejoin:round;stroke-miterlimit:10;" d="
				M131.435,277.835c-1.866,4.456-11.626,4.605-21.826,0.333"/>
			<path style="fill:none;stroke:#000000;stroke-width:3;stroke-linecap:round;stroke-linejoin:round;stroke-miterlimit:10;" d="
				M85.765,284.298c3.172-7.572,13.841-10.318,23.844-6.13"/>
			<path style="fill:none;stroke:#000000;stroke-width:3;stroke-linecap:round;stroke-linejoin:round;stroke-miterlimit:10;" d="
				M85.765,284.298c-4.392,10.487-2.752,21.147,3.675,23.839"/>
			<path style="fill:none;stroke:#000000;stroke-width:3;stroke-linecap:round;stroke-linejoin:round;stroke-miterlimit:10;" d="
				M114.607,305.747c-3.075,7.343-16.487,6.025-25.167,2.39"/>
			<path style="fill:none;stroke:#000000;stroke-width:3;stroke-linecap:round;stroke-linejoin:round;stroke-miterlimit:10;" d="
				M114.607,305.747c0.557-1.328,1.635-1.595,6.734,0.53"/>
			<path style="fill:none;stroke:#000000;stroke-width:3;stroke-linecap:round;stroke-linejoin:round;stroke-miterlimit:10;" d="
				M139.539,309.891c-0.156,0.372-8.07,0.628-18.198-3.613"/>
			
				<line style="fill:none;stroke:#000000;stroke-width:3;stroke-linecap:round;stroke-linejoin:round;stroke-miterlimit:10;" x1="139.539" y1="309.891" x2="163.464" y2="306.501"/>
			
				<line style="fill:none;stroke:#000000;stroke-width:3;stroke-linecap:round;stroke-linejoin:round;stroke-miterlimit:10;" x1="164.018" y1="305.932" x2="185.525" y2="280.344"/>
		</g>
	</g>
	<g>
		<path style="fill:#F9ED32;" d="M172.49,121.719v-0.01c11.81-15.1,18.84-34.12,18.84-54.79c-20.32,0-39.05,6.8-54.02,18.25h-0.01
			c-6.92,5.29-13.04,11.57-18.14,18.63c-10.59,14.64-16.83,32.65-16.83,52.12c18.44,0,35.57-5.6,49.77-15.19
			C159.85,135.5,166.73,129.08,172.49,121.719z M143.61,244.02c-12.54,1.01-24.48,2.48-35.61,4.34
			c-12.05,2.029-23.16,4.52-33.07,7.391c-11.52,3.35-21.43,7.209-29.33,11.49c-9.98,5.389-16.76,11.42-19.53,17.85
			c-0.93,2.16-1.41,4.359-1.41,6.59C12.69,291.68,3,285.57,3,278.01c0-11.051,4.65-20,10.39-20c0-0.801,0-4.541,0-9.24
			C13.39,112.919,107.56,3,223.93,3c59.49,0,113.301,23.88,152.24,62.52c38.94,38.63,63.01,92.02,63.01,151.04
			c0,139.899-184.089,266.888-290.446,222.345c-53.232-22.295-93.299-47.496-89.593-56.346c-4.423,0.75-16.69-3.627-16.638-3.752
			c-8.894-3.725-14.596-10.307-12.751-14.709c3.828-9.141,10.653-14.977,15.266-13.043c9.153,3.832,18.928,5.406,29.063,4.914
			c8.8-0.416,17.876-2.393,27.055-5.795c7.472-2.762,15.012-6.467,22.529-11.041c8.569-5.209,17.11-11.555,25.497-18.91
			c6.166-5.412,12.248-11.383,18.19-17.867c22.815-24.873,40.979-43.906,40.979-86.346c0,9.31-4.73,17.491-11.89,22.18
			c-4.07,2.68-8.91,4.23-14.11,4.23H184c-3.34,0-6.65,0.029-9.93,0.09C163.61,242.709,153.42,243.219,143.61,244.02z"/>
		<path style="fill:#C9C9C9;" d="M67.053,326.26l7.027,29.709c-10.135,0.492-19.91-1.082-29.063-4.914l-3.494-23.42l24.187-7.049
			L67.053,326.26z"/>
		<path style="fill:#C9C9C9;" d="M143.61,244.02c9.81-0.801,20-1.311,30.46-1.51l0.01,0.32l2.74,11.869l0.51,2.221l-29.88,6.119
			L143.61,244.02z"/>
		<path style="fill:#C9C9C9;" d="M147.83,264.92l-33.78,8.23L108,248.359c11.13-1.859,23.07-3.33,35.61-4.34l3.84,19.02
			L147.83,264.92z"/>
		<path style="fill:#C9C9C9;" d="M196.44,238.199l4.39,9.461l-24.01,7.039l-2.74-11.869l-0.01-0.32c3.28-0.061,6.59-0.09,9.93-0.09
			h-1.67c5.2,0,10.04-1.551,14.11-4.23V238.199z"/>
		<path style="fill:#C9C9C9;" d="M146.671,309.811l20.68-7.455c-5.942,6.484-12.025,12.455-18.19,17.867L146.671,309.811z"/>
		<path style="fill:#F1F2F2;" d="M191.33,66.919c0,20.67-7.03,39.69-18.84,54.79c-0.01-21.14-16.37-36.53-35.18-36.54
			C152.28,73.719,171.01,66.919,191.33,66.919z"/>
		<path style="fill:#C9C9C9;" d="M146.671,309.811l2.49,10.412c-8.387,7.355-16.928,13.701-25.497,18.91l-5.47-23.166l28.045-7.982
			L146.671,309.811z"/>
		<path style="fill:#006838;" d="M172.49,121.709v0.01c-5.76,7.36-12.64,13.78-20.39,19.01c0-20.41-14.72-36.92-32.94-36.93
			c5.1-7.06,11.22-13.34,18.14-18.63h0.01C156.12,85.179,172.48,100.569,172.49,121.709z"/>
		<path style="fill:#C9C9C9;" d="M118.194,315.967l5.47,23.166c-7.517,4.574-15.057,8.279-22.529,11.041l-5.575-27.758l22.301-7.838
			L118.194,315.967z"/>
		<path style="fill:#C9C9C9;" d="M95.561,322.416l5.575,27.758c-9.179,3.402-18.255,5.379-27.055,5.795l-7.027-29.709l27.646-8.109
			L95.561,322.416z"/>
		<path d="M119.16,103.799c18.22,0.01,32.94,16.52,32.94,36.93c-14.2,9.59-31.33,15.19-49.77,15.19
			C102.33,136.449,108.57,118.439,119.16,103.799z"/>
		<path style="fill:#C9C9C9;" d="M114.05,273.15l1.28,5.27l-31.65,10.24l-8.75-32.9v-0.01c9.91-2.871,21.02-5.361,33.07-7.391
			L114.05,273.15z"/>
		<path style="fill:#C9C9C9;" d="M83.68,288.66l1.4,5.26l-25.99,14.01L45.6,267.24c7.9-4.281,17.81-8.141,29.33-11.49v0.01
			L83.68,288.66z"/>
		<path style="fill:#C9C9C9;" d="M59.09,307.93l1.74,5.24l-20.5,11l-14.25-39.08h-0.01c2.77-6.43,9.55-12.461,19.53-17.85
			L59.09,307.93z"/>
		<path style="fill:none;stroke:#000000;stroke-width:6;stroke-linecap:round;stroke-linejoin:round;stroke-miterlimit:10;" d="
			M13.39,248.77C13.39,112.919,107.56,3,223.93,3c59.49,0,113.301,23.88,152.24,62.52c38.94,38.63,63.01,92.02,63.01,151.04
			c0,139.899-184.089,266.888-290.446,222.345c-53.232-22.295-93.299-47.496-89.593-56.346c-4.423,0.75-16.69-3.627-16.638-3.752
			c-8.894-3.725-14.596-10.307-12.751-14.709c3.828-9.141,10.653-14.977,15.266-13.043c9.153,3.832,18.928,5.406,29.063,4.914
			c8.8-0.416,17.876-2.393,27.055-5.795c7.472-2.762,15.012-6.467,22.529-11.041c8.569-5.209,17.11-11.555,25.497-18.91
			c6.166-5.412,12.248-11.383,18.19-17.867c22.815-24.873,40.979-43.906,40.979-86.346c0,9.31-4.73,17.491-11.89,22.18
			c-4.07,2.68-8.91,4.23-14.11,4.23H184c-3.34,0-6.65,0.029-9.93,0.09c-10.46,0.199-20.65,0.709-30.46,1.51
			c-12.54,1.01-24.48,2.48-35.61,4.34c-12.05,2.029-23.16,4.52-33.07,7.391c-11.52,3.35-21.43,7.209-29.33,11.49
			c-9.98,5.389-16.76,11.42-19.53,17.85c-0.93,2.16-1.41,4.359-1.41,6.59C12.69,291.68,3,285.57,3,278.01c0-11.051,4.65-20,10.39-20
			"/>
		<path style="fill:none;stroke:#000000;stroke-width:6;stroke-linecap:round;stroke-linejoin:round;stroke-miterlimit:10;" d="
			M13.39,248.77c0,4.699,0,8.439,0,9.24"/>
		<path style="fill:none;stroke:#000000;stroke-width:3;stroke-linecap:round;stroke-linejoin:bevel;stroke-miterlimit:10;" d="
			M172.49,121.709c-0.01-21.14-16.37-36.53-35.18-36.54"/>
		<path style="fill:none;stroke:#000000;stroke-width:3;stroke-linecap:round;stroke-linejoin:bevel;stroke-miterlimit:10;" d="
			M191.33,66.919"/>
		<path style="fill:none;stroke:#000000;stroke-width:3;stroke-linecap:round;stroke-linejoin:bevel;stroke-miterlimit:10;" d="
			M119.16,103.799"/>
		<path style="fill:none;stroke:#000000;stroke-width:3;stroke-linecap:round;stroke-linejoin:bevel;stroke-miterlimit:10;" d="
			M102.33,155.919"/>
		<path style="fill:none;stroke:#000000;stroke-width:3;stroke-linecap:round;stroke-linejoin:bevel;stroke-miterlimit:10;" d="
			M191.33,66.919c0,20.67-7.03,39.69-18.84,54.79v0.01c-5.76,7.36-12.64,13.78-20.39,19.01c-14.2,9.59-31.33,15.19-49.77,15.19"/>
		<path style="fill:none;stroke:#000000;stroke-width:3;stroke-linecap:round;stroke-linejoin:bevel;stroke-miterlimit:10;" d="
			M152.1,140.729c0-20.41-14.72-36.92-32.94-36.93h-0.01"/>
		
			<line style="fill:none;stroke:#000000;stroke-width:4;stroke-linecap:round;stroke-miterlimit:10;" x1="200.83" y1="247.66" x2="196.44" y2="238.199"/>
		
			<line style="fill:none;stroke:#000000;stroke-width:4;stroke-linecap:round;stroke-miterlimit:10;" x1="26.08" y1="285.09" x2="40.33" y2="324.17"/>
		
			<line style="fill:none;stroke:#000000;stroke-width:4;stroke-linecap:round;stroke-miterlimit:10;" x1="40.33" y1="324.17" x2="60.83" y2="313.17"/>
		<polyline style="fill:none;stroke:#000000;stroke-width:4;stroke-linecap:round;stroke-miterlimit:10;" points="60.83,313.17 
			59.09,307.93 45.6,267.24 		"/>
		
			<line style="fill:none;stroke:#000000;stroke-width:4;stroke-linecap:round;stroke-miterlimit:10;" x1="59.09" y1="307.93" x2="85.08" y2="293.92"/>
		<polyline style="fill:none;stroke:#000000;stroke-width:4;stroke-linecap:round;stroke-miterlimit:10;" points="85.08,293.92 
			83.68,288.66 74.93,255.76 		"/>
		
			<line style="fill:none;stroke:#000000;stroke-width:4;stroke-linecap:round;stroke-miterlimit:10;" x1="83.68" y1="288.66" x2="115.33" y2="278.42"/>
		<polyline style="fill:none;stroke:#000000;stroke-width:4;stroke-linecap:round;stroke-miterlimit:10;" points="115.33,278.42 
			114.05,273.15 108,248.359 107.83,247.66 		"/>
		
			<line style="fill:none;stroke:#000000;stroke-width:4;stroke-linecap:round;stroke-miterlimit:10;" x1="114.05" y1="273.15" x2="147.83" y2="264.92"/>
		<polyline style="fill:none;stroke:#000000;stroke-width:4;stroke-linecap:round;stroke-miterlimit:10;" points="147.83,264.92 
			147.45,263.039 143.61,244.02 143.61,244.01 		"/>
		
			<line style="fill:none;stroke:#000000;stroke-width:4;stroke-linecap:round;stroke-miterlimit:10;" x1="147.45" y1="263.039" x2="177.33" y2="256.92"/>
		<polyline style="fill:none;stroke:#000000;stroke-width:4;stroke-linecap:round;stroke-miterlimit:10;" points="177.33,256.92 
			176.82,254.699 174.08,242.83 		"/>
		
			<line style="fill:none;stroke:#000000;stroke-width:4;stroke-linecap:round;stroke-miterlimit:10;" x1="176.82" y1="254.699" x2="200.83" y2="247.66"/>
		
			<line style="fill:none;stroke:#000000;stroke-width:4;stroke-linecap:round;stroke-miterlimit:10;" x1="45.017" y1="351.055" x2="41.523" y2="327.635"/>
		
			<line style="fill:none;stroke:#000000;stroke-width:4;stroke-linecap:round;stroke-miterlimit:10;" x1="41.523" y1="327.635" x2="65.71" y2="320.586"/>
		<polyline style="fill:none;stroke:#000000;stroke-width:4;stroke-linecap:round;stroke-miterlimit:10;" points="65.71,320.586 
			67.053,326.26 74.08,355.969 		"/>
		
			<line style="fill:none;stroke:#000000;stroke-width:4;stroke-linecap:round;stroke-miterlimit:10;" x1="67.053" y1="326.26" x2="94.699" y2="318.15"/>
		<polyline style="fill:none;stroke:#000000;stroke-width:4;stroke-linecap:round;stroke-miterlimit:10;" points="94.699,318.15 
			95.561,322.416 101.135,350.174 		"/>
		
			<line style="fill:none;stroke:#000000;stroke-width:4;stroke-linecap:round;stroke-miterlimit:10;" x1="95.561" y1="322.416" x2="117.861" y2="314.578"/>
		<polyline style="fill:none;stroke:#000000;stroke-width:4;stroke-linecap:round;stroke-miterlimit:10;" points="117.861,314.578 
			118.194,315.967 123.664,339.133 		"/>
		
			<line style="fill:none;stroke:#000000;stroke-width:4;stroke-linecap:round;stroke-miterlimit:10;" x1="118.194" y1="315.967" x2="146.239" y2="307.984"/>
		<polyline style="fill:none;stroke:#000000;stroke-width:4;stroke-linecap:round;stroke-miterlimit:10;" points="146.239,307.984 
			146.671,309.811 149.161,320.223 		"/>
		
			<line style="fill:none;stroke:#000000;stroke-width:4;stroke-linecap:round;stroke-miterlimit:10;" x1="146.671" y1="309.811" x2="167.352" y2="302.355"/>
		<path style="fill:none;stroke:#000000;stroke-width:3;stroke-linecap:round;stroke-linejoin:bevel;stroke-miterlimit:10;" d="
			M191.33,66.919"/>
		<path style="fill:none;stroke:#000000;stroke-width:3;stroke-linecap:round;stroke-linejoin:bevel;stroke-miterlimit:10;" d="
			M191.33,66.919"/>
		<path style="fill:none;stroke:#000000;stroke-width:3;stroke-linecap:round;stroke-linejoin:bevel;stroke-miterlimit:10;" d="
			M102.33,155.919c0-49.193,39.807-89,89-89"/>
		<g>
			<path style="fill:none;stroke:#000000;stroke-width:3;stroke-miterlimit:10;" d="M238.33,199.919c0-8.015-6.441-14.5-14.402-14.5
				"/>
			<path style="fill:none;stroke:#000000;stroke-width:3;stroke-miterlimit:10;" d="M273.83,202.919c0-23.215-15.878-42-35.5-42"/>
		</g>
	</g>
</g>
<g id="Layer_1">
</g>
</svg>
