<?xml version="1.0" encoding="iso-8859-1"?>
<!-- Generator: Adobe Illustrator 16.0.0, SVG Export Plug-In . SVG Version: 6.00 Build 0)  -->
<!DOCTYPE svg PUBLIC "-//W3C//DTD SVG 1.1//EN" "http://www.w3.org/Graphics/SVG/1.1/DTD/svg11.dtd">
<svg version="1.1" xmlns="http://www.w3.org/2000/svg" xmlns:xlink="http://www.w3.org/1999/xlink" x="0px" y="0px"
	 width="442.18px" height="448.491px" viewBox="0 0 442.18 448.491" style="enable-background:new 0 0 442.18 448.491;"
	 xml:space="preserve">
<g id="_x32_9">
	<g id="XMLID_31_">
		<g>
			<path style="fill:#ED1F24;" d="M90.604,304.718c-6.335-2.789-7.769-13.416-3.213-23.764c3.29-7.473,13.939-10.016,23.798-5.675
				c10.053,4.426,19.752,4.449,21.687,0.053c5.052-11.476,21.412-15.354,34.126-9.757c11.745,5.171,20.494,11.078,19.559,13.202
				l-21.835,25.059l-0.561,0.557l-23.829,2.948c-0.162,0.367-8.028,0.483-18.011-3.912c-5.022-2.211-6.102-1.956-6.679-0.645
				C112.458,310.029,99.159,308.484,90.604,304.718z"/>
		</g>
		<g>
			<path style="fill:none;stroke:#000000;stroke-width:3;stroke-linecap:round;stroke-linejoin:round;stroke-miterlimit:10;" d="
				M186.562,278.777c0.935-2.124-7.814-8.031-19.559-13.202"/>
			<path style="fill:none;stroke:#000000;stroke-width:3;stroke-linecap:round;stroke-linejoin:round;stroke-miterlimit:10;" d="
				M132.876,275.332c5.052-11.476,21.412-15.354,34.126-9.757"/>
			<path style="fill:none;stroke:#000000;stroke-width:3;stroke-linecap:round;stroke-linejoin:round;stroke-miterlimit:10;" d="
				M132.876,275.332c-1.935,4.396-11.634,4.373-21.687-0.053"/>
			<path style="fill:none;stroke:#000000;stroke-width:3;stroke-linecap:round;stroke-linejoin:round;stroke-miterlimit:10;" d="
				M87.391,280.954c3.29-7.473,13.939-10.016,23.798-5.675"/>
			<path style="fill:none;stroke:#000000;stroke-width:3;stroke-linecap:round;stroke-linejoin:round;stroke-miterlimit:10;" d="
				M87.391,280.954c-4.556,10.348-3.123,20.975,3.213,23.764"/>
			<path style="fill:none;stroke:#000000;stroke-width:3;stroke-linecap:round;stroke-linejoin:round;stroke-miterlimit:10;" d="
				M115.648,302.784c-3.19,7.245-16.489,5.7-25.044,1.934"/>
			<path style="fill:none;stroke:#000000;stroke-width:3;stroke-linecap:round;stroke-linejoin:round;stroke-miterlimit:10;" d="
				M115.648,302.784c0.577-1.312,1.657-1.566,6.679,0.645"/>
			<path style="fill:none;stroke:#000000;stroke-width:3;stroke-linecap:round;stroke-linejoin:round;stroke-miterlimit:10;" d="
				M140.338,307.341c-0.162,0.367-8.028,0.483-18.011-3.912"/>
			
				<line style="fill:none;stroke:#000000;stroke-width:3;stroke-linecap:round;stroke-linejoin:round;stroke-miterlimit:10;" x1="140.338" y1="307.341" x2="164.167" y2="304.393"/>
			
				<line style="fill:none;stroke:#000000;stroke-width:3;stroke-linecap:round;stroke-linejoin:round;stroke-miterlimit:10;" x1="164.727" y1="303.836" x2="186.562" y2="278.777"/>
		</g>
	</g>
	<g>
		<path style="fill:#F9ED32;" d="M172.49,121.72v-0.01c11.81-15.1,18.84-34.12,18.84-54.79c-20.32,0-39.05,6.8-54.02,18.25h-0.01
			c-6.92,5.29-13.04,11.57-18.14,18.63c-10.59,14.64-16.83,32.65-16.83,52.12c18.44,0,35.57-5.6,49.77-15.19
			C159.85,135.5,166.73,129.08,172.49,121.72z M143.61,244.02c-12.54,1.011-24.48,2.48-35.61,4.341
			c-12.05,2.029-23.16,4.52-33.07,7.39c-11.52,3.35-21.43,7.21-29.33,11.49c-9.98,5.39-16.76,11.42-19.53,17.85
			c-0.93,2.16-1.41,4.36-1.41,6.59C12.69,291.68,3,285.57,3,278.01c0-11.05,4.65-20,10.39-20c0-0.8,0-4.54,0-9.24
			C13.39,112.92,107.56,3,223.93,3c59.49,0,113.301,23.88,152.24,62.52c38.94,38.63,63.01,92.02,63.01,151.04
			c0,139.9-187.24,265.35-292.074,219.2c-52.469-23.1-91.808-48.857-87.964-57.589c-4.407,0.667-16.513-3.899-16.458-4.022
			c-8.767-3.859-14.31-10.504-12.397-14.848c3.971-9.021,10.857-14.7,15.404-12.698c9.022,3.972,18.703,5.708,28.78,5.396
			c8.749-0.259,17.801-2.064,26.982-5.285c7.473-2.614,15.031-6.165,22.582-10.581c8.608-5.027,17.209-11.185,25.675-18.349
			c6.224-5.273,12.375-11.102,18.397-17.444c23.121-24.325,40.222-41.89,40.222-84.33c0,9.311-4.73,17.49-11.89,22.181
			c-4.07,2.68-8.91,4.229-14.11,4.229H184c-3.34,0-6.65,0.03-9.93,0.09C163.61,242.71,153.42,243.22,143.61,244.02z"/>
		<path style="fill:#C9C9C9;" d="M68.036,322.342l6.435,29.657c-10.077,0.312-19.758-1.426-28.78-5.396l-3.041-23.344l24.155-6.582
			L68.036,322.342z"/>
		<path style="fill:#C9C9C9;" d="M143.61,244.02c9.81-0.8,20-1.31,30.46-1.51l0.01,0.32l2.74,11.87l0.51,2.22l-29.88,6.12
			L143.61,244.02z"/>
		<path style="fill:#C9C9C9;" d="M147.83,264.92l-33.78,8.23L108,248.36c11.13-1.86,23.07-3.33,35.61-4.341l3.84,19.021
			L147.83,264.92z"/>
		<path style="fill:#C9C9C9;" d="M196.44,238.2l4.39,9.46l-24.01,7.04l-2.74-11.87l-0.01-0.32c3.28-0.06,6.59-0.09,9.93-0.09h-1.67
			c5.2,0,10.04-1.55,14.11-4.229V238.2z"/>
		<path style="fill:#C9C9C9;" d="M147.428,307.388l20.68-7.048c-6.022,6.343-12.174,12.171-18.397,17.444L147.428,307.388z"/>
		<path style="fill:#F1F2F2;" d="M191.33,66.92c0,20.67-7.03,39.69-18.84,54.79c-0.01-21.14-16.37-36.53-35.18-36.54
			C152.28,73.72,171.01,66.92,191.33,66.92z"/>
		<path style="fill:#C9C9C9;" d="M147.428,307.388l2.282,10.396c-8.466,7.164-17.067,13.321-25.675,18.349l-5.008-23.124
			l28.005-7.442L147.428,307.388z"/>
		<path style="fill:#006838;" d="M172.49,121.71v0.01c-5.76,7.36-12.64,13.78-20.39,19.01c0-20.41-14.72-36.92-32.94-36.93
			c5.1-7.06,11.22-13.34,18.14-18.63h0.01C156.12,85.18,172.48,100.57,172.49,121.71z"/>
		<path style="fill:#C9C9C9;" d="M119.027,313.009l5.008,23.124c-7.551,4.416-15.109,7.967-22.582,10.581l-5.028-27.691l22.297-7.4
			L119.027,313.009z"/>
		<path style="fill:#C9C9C9;" d="M96.425,319.022l5.028,27.691c-9.181,3.221-18.233,5.026-26.982,5.285l-6.435-29.657l27.612-7.576
			L96.425,319.022z"/>
		<path d="M119.16,103.8c18.22,0.01,32.94,16.52,32.94,36.93c-14.2,9.59-31.33,15.19-49.77,15.19
			C102.33,136.45,108.57,118.44,119.16,103.8z"/>
		<path style="fill:#C9C9C9;" d="M114.05,273.15l1.28,5.27l-31.65,10.24l-8.75-32.9v-0.01c9.91-2.87,21.02-5.36,33.07-7.39
			L114.05,273.15z"/>
		<path style="fill:#C9C9C9;" d="M83.68,288.66l1.4,5.26l-25.99,14.01L45.6,267.24c7.9-4.28,17.81-8.141,29.33-11.49v0.01
			L83.68,288.66z"/>
		<path style="fill:#C9C9C9;" d="M59.09,307.93l1.74,5.24l-20.5,11l-14.25-39.08h-0.01c2.77-6.43,9.55-12.46,19.53-17.85
			L59.09,307.93z"/>
		<path style="fill:none;stroke:#000000;stroke-width:6;stroke-linecap:round;stroke-linejoin:round;stroke-miterlimit:10;" d="
			M13.39,248.77C13.39,112.92,107.56,3,223.93,3c59.49,0,113.301,23.88,152.24,62.52c38.94,38.63,63.01,92.02,63.01,151.04
			c0,139.9-187.24,265.35-292.074,219.2c-52.469-23.1-91.808-48.857-87.964-57.589c-4.407,0.667-16.513-3.899-16.458-4.022
			c-8.767-3.859-14.31-10.504-12.397-14.848c3.971-9.021,10.857-14.7,15.404-12.698c9.022,3.972,18.703,5.708,28.78,5.396
			c8.749-0.259,17.801-2.064,26.982-5.285c7.473-2.614,15.031-6.165,22.582-10.581c8.608-5.027,17.209-11.185,25.675-18.349
			c6.224-5.273,12.375-11.102,18.397-17.444c23.121-24.325,40.222-41.89,40.222-84.33c0,9.311-4.73,17.49-11.89,22.181
			c-4.07,2.68-8.91,4.229-14.11,4.229H184c-3.34,0-6.65,0.03-9.93,0.09c-10.46,0.2-20.65,0.71-30.46,1.51
			c-12.54,1.011-24.48,2.48-35.61,4.341c-12.05,2.029-23.16,4.52-33.07,7.39c-11.52,3.35-21.43,7.21-29.33,11.49
			c-9.98,5.39-16.76,11.42-19.53,17.85c-0.93,2.16-1.41,4.36-1.41,6.59C12.69,291.68,3,285.57,3,278.01c0-11.05,4.65-20,10.39-20"/>
		<path style="fill:none;stroke:#000000;stroke-width:6;stroke-linecap:round;stroke-linejoin:round;stroke-miterlimit:10;" d="
			M13.39,248.77c0,4.7,0,8.44,0,9.24"/>
		<path style="fill:none;stroke:#000000;stroke-width:3;stroke-linecap:round;stroke-linejoin:bevel;stroke-miterlimit:10;" d="
			M172.49,121.71c-0.01-21.14-16.37-36.53-35.18-36.54"/>
		<path style="fill:none;stroke:#000000;stroke-width:3;stroke-linecap:round;stroke-linejoin:bevel;stroke-miterlimit:10;" d="
			M191.33,66.92"/>
		<path style="fill:none;stroke:#000000;stroke-width:3;stroke-linecap:round;stroke-linejoin:bevel;stroke-miterlimit:10;" d="
			M119.16,103.8"/>
		<path style="fill:none;stroke:#000000;stroke-width:3;stroke-linecap:round;stroke-linejoin:bevel;stroke-miterlimit:10;" d="
			M102.33,155.92"/>
		<path style="fill:none;stroke:#000000;stroke-width:3;stroke-linecap:round;stroke-linejoin:bevel;stroke-miterlimit:10;" d="
			M191.33,66.92c0,20.67-7.03,39.69-18.84,54.79v0.01c-5.76,7.36-12.64,13.78-20.39,19.01c-14.2,9.59-31.33,15.19-49.77,15.19"/>
		<path style="fill:none;stroke:#000000;stroke-width:3;stroke-linecap:round;stroke-linejoin:bevel;stroke-miterlimit:10;" d="
			M152.1,140.73c0-20.41-14.72-36.92-32.94-36.93h-0.01"/>
		
			<line style="fill:none;stroke:#000000;stroke-width:4;stroke-linecap:round;stroke-miterlimit:10;" x1="200.83" y1="247.66" x2="196.44" y2="238.2"/>
		
			<line style="fill:none;stroke:#000000;stroke-width:4;stroke-linecap:round;stroke-miterlimit:10;" x1="26.08" y1="285.09" x2="40.33" y2="324.17"/>
		
			<line style="fill:none;stroke:#000000;stroke-width:4;stroke-linecap:round;stroke-miterlimit:10;" x1="40.33" y1="324.17" x2="60.83" y2="313.17"/>
		<polyline style="fill:none;stroke:#000000;stroke-width:4;stroke-linecap:round;stroke-miterlimit:10;" points="60.83,313.17 
			59.09,307.93 45.6,267.24 		"/>
		
			<line style="fill:none;stroke:#000000;stroke-width:4;stroke-linecap:round;stroke-miterlimit:10;" x1="59.09" y1="307.93" x2="85.08" y2="293.92"/>
		<polyline style="fill:none;stroke:#000000;stroke-width:4;stroke-linecap:round;stroke-miterlimit:10;" points="85.08,293.92 
			83.68,288.66 74.93,255.76 		"/>
		
			<line style="fill:none;stroke:#000000;stroke-width:4;stroke-linecap:round;stroke-miterlimit:10;" x1="83.68" y1="288.66" x2="115.33" y2="278.42"/>
		<polyline style="fill:none;stroke:#000000;stroke-width:4;stroke-linecap:round;stroke-miterlimit:10;" points="115.33,278.42 
			114.05,273.15 108,248.36 107.83,247.66 		"/>
		
			<line style="fill:none;stroke:#000000;stroke-width:4;stroke-linecap:round;stroke-miterlimit:10;" x1="114.05" y1="273.15" x2="147.83" y2="264.92"/>
		<polyline style="fill:none;stroke:#000000;stroke-width:4;stroke-linecap:round;stroke-miterlimit:10;" points="147.83,264.92 
			147.45,263.04 143.61,244.02 143.61,244.01 		"/>
		
			<line style="fill:none;stroke:#000000;stroke-width:4;stroke-linecap:round;stroke-miterlimit:10;" x1="147.45" y1="263.04" x2="177.33" y2="256.92"/>
		<polyline style="fill:none;stroke:#000000;stroke-width:4;stroke-linecap:round;stroke-miterlimit:10;" points="177.33,256.92 
			176.82,254.7 174.08,242.83 		"/>
		
			<line style="fill:none;stroke:#000000;stroke-width:4;stroke-linecap:round;stroke-miterlimit:10;" x1="176.82" y1="254.7" x2="200.83" y2="247.66"/>
		
			<line style="fill:none;stroke:#000000;stroke-width:4;stroke-linecap:round;stroke-miterlimit:10;" x1="45.691" y1="346.603" x2="42.65" y2="323.259"/>
		
			<line style="fill:none;stroke:#000000;stroke-width:4;stroke-linecap:round;stroke-miterlimit:10;" x1="42.65" y1="323.259" x2="66.806" y2="316.677"/>
		<polyline style="fill:none;stroke:#000000;stroke-width:4;stroke-linecap:round;stroke-miterlimit:10;" points="66.806,316.677 
			68.036,322.342 74.471,351.999 		"/>
		
			<line style="fill:none;stroke:#000000;stroke-width:4;stroke-linecap:round;stroke-miterlimit:10;" x1="68.036" y1="322.342" x2="95.648" y2="314.766"/>
		<polyline style="fill:none;stroke:#000000;stroke-width:4;stroke-linecap:round;stroke-miterlimit:10;" points="95.648,314.766 
			96.425,319.022 101.453,346.714 		"/>
		
			<line style="fill:none;stroke:#000000;stroke-width:4;stroke-linecap:round;stroke-miterlimit:10;" x1="96.425" y1="319.022" x2="118.722" y2="311.622"/>
		<polyline style="fill:none;stroke:#000000;stroke-width:4;stroke-linecap:round;stroke-miterlimit:10;" points="118.722,311.622 
			119.027,313.009 124.035,336.133 		"/>
		
			<line style="fill:none;stroke:#000000;stroke-width:4;stroke-linecap:round;stroke-miterlimit:10;" x1="119.027" y1="313.009" x2="147.032" y2="305.566"/>
		<polyline style="fill:none;stroke:#000000;stroke-width:4;stroke-linecap:round;stroke-miterlimit:10;" points="147.032,305.566 
			147.428,307.388 149.71,317.784 		"/>
		
			<line style="fill:none;stroke:#000000;stroke-width:4;stroke-linecap:round;stroke-miterlimit:10;" x1="147.428" y1="307.388" x2="168.108" y2="300.34"/>
		<path style="fill:none;stroke:#000000;stroke-width:3;stroke-linecap:round;stroke-linejoin:bevel;stroke-miterlimit:10;" d="
			M191.33,66.92"/>
		<path style="fill:none;stroke:#000000;stroke-width:3;stroke-linecap:round;stroke-linejoin:bevel;stroke-miterlimit:10;" d="
			M191.33,66.92"/>
		<path style="fill:none;stroke:#000000;stroke-width:3;stroke-linecap:round;stroke-linejoin:bevel;stroke-miterlimit:10;" d="
			M102.33,155.92c0-49.193,39.807-89,89-89"/>
		<g>
			<path style="fill:none;stroke:#000000;stroke-width:3;stroke-miterlimit:10;" d="M238.33,199.92c0-8.015-6.441-14.5-14.402-14.5"
				/>
			<path style="fill:none;stroke:#000000;stroke-width:3;stroke-miterlimit:10;" d="M273.83,202.92c0-23.215-15.878-42-35.5-42"/>
		</g>
	</g>
</g>
<g id="Layer_1">
</g>
</svg>
