<?xml version="1.0" encoding="iso-8859-1"?>
<!-- Generator: Adobe Illustrator 16.0.0, SVG Export Plug-In . SVG Version: 6.00 Build 0)  -->
<!DOCTYPE svg PUBLIC "-//W3C//DTD SVG 1.1//EN" "http://www.w3.org/Graphics/SVG/1.1/DTD/svg11.dtd">
<svg version="1.1" xmlns="http://www.w3.org/2000/svg" xmlns:xlink="http://www.w3.org/1999/xlink" x="0px" y="0px"
	 width="442.18px" height="479.827px" viewBox="0 0 442.18 479.827" style="enable-background:new 0 0 442.18 479.827;"
	 xml:space="preserve">
<g id="_x35_">
	<g id="XMLID_9_">
		<g>
			<path style="fill:#ED1F24;" d="M149.895,387.688c-7.008,1.608-14.814-6.428-17.464-17.968
				c-1.914-8.333,5.366-17.115,16.272-19.619c11.121-2.554,19.206-8.586,18.08-13.488c-2.938-12.797,8.262-26.265,22.326-29.494
				c12.992-2.983,23.949-3.478,24.493-1.109l-2.583,34.688l-0.11,0.815l-17.994,17.347c0.094,0.41-6.38,5.415-17.423,7.951
				c-5.555,1.275-6.295,2.164-5.959,3.626C171.387,378.515,159.358,385.515,149.895,387.688z"/>
		</g>
		<g>
			<path style="fill:none;stroke:#000000;stroke-width:3;stroke-linecap:round;stroke-linejoin:round;stroke-miterlimit:10;" d="
				M213.602,306.009c-0.544-2.368-11.501-1.874-24.493,1.109"/>
			<path style="fill:none;stroke:#000000;stroke-width:3;stroke-linecap:round;stroke-linejoin:round;stroke-miterlimit:10;" d="
				M166.783,336.612c-2.938-12.797,8.262-26.265,22.326-29.494"/>
			<path style="fill:none;stroke:#000000;stroke-width:3;stroke-linecap:round;stroke-linejoin:round;stroke-miterlimit:10;" d="
				M166.783,336.612c1.125,4.902-6.959,10.935-18.08,13.488"/>
			<path style="fill:none;stroke:#000000;stroke-width:3;stroke-linecap:round;stroke-linejoin:round;stroke-miterlimit:10;" d="
				M132.431,369.72c-1.914-8.333,5.366-17.115,16.272-19.619"/>
			<path style="fill:none;stroke:#000000;stroke-width:3;stroke-linecap:round;stroke-linejoin:round;stroke-miterlimit:10;" d="
				M132.431,369.72c2.649,11.54,10.456,19.576,17.464,17.968"/>
			<path style="fill:none;stroke:#000000;stroke-width:3;stroke-linecap:round;stroke-linejoin:round;stroke-miterlimit:10;" d="
				M169.532,370.436c1.855,8.079-10.174,15.079-19.637,17.252"/>
			<path style="fill:none;stroke:#000000;stroke-width:3;stroke-linecap:round;stroke-linejoin:round;stroke-miterlimit:10;" d="
				M169.532,370.436c-0.336-1.462,0.404-2.351,5.959-3.626"/>
			<path style="fill:none;stroke:#000000;stroke-width:3;stroke-linecap:round;stroke-linejoin:round;stroke-miterlimit:10;" d="
				M192.915,358.858c0.094,0.41-6.38,5.415-17.423,7.951"/>
			
				<line style="fill:none;stroke:#000000;stroke-width:3;stroke-linecap:round;stroke-linejoin:round;stroke-miterlimit:10;" x1="192.915" y1="358.858" x2="210.909" y2="341.512"/>
			
				<line style="fill:none;stroke:#000000;stroke-width:3;stroke-linecap:round;stroke-linejoin:round;stroke-miterlimit:10;" x1="211.019" y1="340.696" x2="213.602" y2="306.009"/>
		</g>
	</g>
	<g>
		<path style="fill:#F9ED32;" d="M172.49,121.72v-0.01c11.81-15.1,18.84-34.12,18.84-54.79c-20.32,0-39.05,6.8-54.02,18.25h-0.01
			c-6.92,5.29-13.04,11.57-18.14,18.63c-10.59,14.64-16.83,32.65-16.83,52.12c18.44,0,35.57-5.6,49.77-15.19
			C159.85,135.5,166.73,129.08,172.49,121.72z M143.61,244.02c-12.54,1.011-24.48,2.48-35.61,4.341
			c-12.05,2.029-23.16,4.52-33.07,7.39c-11.52,3.35-21.43,7.21-29.33,11.49c-9.98,5.39-16.76,11.42-19.53,17.85
			c-0.93,2.16-1.41,4.36-1.41,6.59C12.69,291.68,3,285.57,3,278.01c0-11.05,4.65-20,10.39-20c0-0.8,0-4.54,0-9.24
			C13.39,112.92,107.56,3,223.93,3c59.49,0,113.301,23.88,152.24,62.52c38.94,38.63,63.01,92.02,63.01,151.04
			c0,139.9-44.743,219.379-160.706,246.005c-58.04,13.327-106.808,16.225-109.043,6.487c-3.251,3.313-16.167,7.027-16.199,6.891
			c-9.698,2.227-18.445,0.101-19.558-4.744c-2.309-10.058-0.114-19.129,4.916-20.284c9.98-2.292,19.117-6.872,27.309-13.422
			c7.12-5.678,13.528-12.843,19.164-21.278c4.591-6.861,8.671-14.56,12.206-22.984c4.034-9.597,7.359-20.139,9.945-31.443
			c1.897-8.315,3.39-17.051,4.453-26.14c4.1-34.871-3.336-77.197-3.336-119.638c0,9.31-4.73,17.49-11.89,22.18
			c-4.07,2.68-8.91,4.23-14.11,4.23H184c-3.34,0-6.65,0.03-9.93,0.09C163.61,242.71,153.42,243.22,143.61,244.02z"/>
		<path style="fill:#C9C9C9;" d="M142.084,416.582l23.814,20.911c-8.192,6.55-17.329,11.131-27.309,13.422l-17.059-17.722
			l16.005-20.604L142.084,416.582z"/>
		<path style="fill:#C9C9C9;" d="M143.61,244.02c9.81-0.8,20-1.31,30.46-1.51l0.01,0.32l2.74,11.87l0.51,2.22l-29.88,6.12
			L143.61,244.02z"/>
		<path style="fill:#C9C9C9;" d="M147.83,264.92l-33.78,8.23L108,248.36c11.13-1.86,23.07-3.33,35.61-4.341l3.84,19.021
			L147.83,264.92z"/>
		<path style="fill:#C9C9C9;" d="M196.44,238.2l4.39,9.46l-24.01,7.04l-2.74-11.87l-0.01-0.32c3.28-0.06,6.59-0.09,9.93-0.09h-1.67
			c5.2,0,10.04-1.55,14.11-4.23V238.2z"/>
		<path style="fill:#C9C9C9;" d="M198.845,354.475l12.822-18.827c-1.063,9.089-2.556,17.824-4.453,26.14L198.845,354.475z"/>
		<path style="fill:#F1F2F2;" d="M191.33,66.92c0,20.67-7.03,39.69-18.84,54.79c-0.01-21.14-16.37-36.53-35.18-36.54
			C152.28,73.72,171.01,66.92,191.33,66.92z"/>
		<path style="fill:#C9C9C9;" d="M198.845,354.475l8.369,7.313c-2.586,11.305-5.911,21.847-9.945,31.443l-18.561-16.31
			l18.673-23.731L198.845,354.475z"/>
		<path style="fill:#006838;" d="M172.49,121.71v0.01c-5.76,7.36-12.64,13.78-20.39,19.01c0-20.41-14.72-36.92-32.94-36.93
			c5.1-7.06,11.22-13.34,18.14-18.63h0.01C156.12,85.18,172.48,100.57,172.49,121.71z"/>
		<path style="fill:#C9C9C9;" d="M178.707,376.921l18.561,16.31c-3.535,8.425-7.615,16.123-12.206,22.984l-21.42-20.137
			l13.949-20.133L178.707,376.921z"/>
		<path style="fill:#C9C9C9;" d="M163.642,396.078l21.42,20.137c-5.636,8.436-12.044,15.601-19.164,21.278l-23.814-20.911
			l18.263-23.595L163.642,396.078z"/>
		<path d="M119.16,103.8c18.22,0.01,32.94,16.52,32.94,36.93c-14.2,9.59-31.33,15.19-49.77,15.19
			C102.33,136.45,108.57,118.44,119.16,103.8z"/>
		<path style="fill:#C9C9C9;" d="M114.05,273.15l1.28,5.27l-31.65,10.24l-8.75-32.9v-0.01c9.91-2.87,21.02-5.36,33.07-7.39
			L114.05,273.15z"/>
		<path style="fill:#C9C9C9;" d="M83.68,288.66l1.4,5.26l-25.99,14.01L45.6,267.24c7.9-4.28,17.81-8.141,29.33-11.49v0.01
			L83.68,288.66z"/>
		<path style="fill:#C9C9C9;" d="M59.09,307.93l1.74,5.24l-20.5,11l-14.25-39.08h-0.01c2.77-6.43,9.55-12.46,19.53-17.85
			L59.09,307.93z"/>
		<path style="fill:none;stroke:#000000;stroke-width:6;stroke-linecap:round;stroke-linejoin:round;stroke-miterlimit:10;" d="
			M13.39,248.77C13.39,112.92,107.56,3,223.93,3c59.49,0,113.301,23.88,152.24,62.52c38.94,38.63,63.01,92.02,63.01,151.04
			c0,139.9-44.743,219.379-160.706,246.005c-58.04,13.327-106.808,16.225-109.043,6.487c-3.251,3.313-16.167,7.027-16.199,6.891
			c-9.698,2.227-18.445,0.101-19.558-4.744c-2.309-10.058-0.114-19.129,4.916-20.284c9.98-2.292,19.117-6.872,27.309-13.422
			c7.12-5.678,13.528-12.843,19.164-21.278c4.591-6.861,8.671-14.56,12.206-22.984c4.034-9.597,7.359-20.139,9.945-31.443
			c1.897-8.315,3.39-17.051,4.453-26.14c4.1-34.871-3.336-77.197-3.336-119.638c0,9.31-4.73,17.49-11.89,22.18
			c-4.07,2.68-8.91,4.23-14.11,4.23H184c-3.34,0-6.65,0.03-9.93,0.09c-10.46,0.2-20.65,0.71-30.46,1.51
			c-12.54,1.011-24.48,2.48-35.61,4.341c-12.05,2.029-23.16,4.52-33.07,7.39c-11.52,3.35-21.43,7.21-29.33,11.49
			c-9.98,5.39-16.76,11.42-19.53,17.85c-0.93,2.16-1.41,4.36-1.41,6.59C12.69,291.68,3,285.57,3,278.01c0-11.05,4.65-20,10.39-20"/>
		<path style="fill:none;stroke:#000000;stroke-width:6;stroke-linecap:round;stroke-linejoin:round;stroke-miterlimit:10;" d="
			M13.39,248.77c0,4.7,0,8.44,0,9.24"/>
		<path style="fill:none;stroke:#000000;stroke-width:3;stroke-linecap:round;stroke-linejoin:bevel;stroke-miterlimit:10;" d="
			M172.49,121.71c-0.01-21.14-16.37-36.53-35.18-36.54"/>
		<path style="fill:none;stroke:#000000;stroke-width:3;stroke-linecap:round;stroke-linejoin:bevel;stroke-miterlimit:10;" d="
			M191.33,66.92"/>
		<path style="fill:none;stroke:#000000;stroke-width:3;stroke-linecap:round;stroke-linejoin:bevel;stroke-miterlimit:10;" d="
			M119.16,103.8"/>
		<path style="fill:none;stroke:#000000;stroke-width:3;stroke-linecap:round;stroke-linejoin:bevel;stroke-miterlimit:10;" d="
			M102.33,155.92"/>
		<path style="fill:none;stroke:#000000;stroke-width:3;stroke-linecap:round;stroke-linejoin:bevel;stroke-miterlimit:10;" d="
			M191.33,66.92c0,20.67-7.03,39.69-18.84,54.79v0.01c-5.76,7.36-12.64,13.78-20.39,19.01c-14.2,9.59-31.33,15.19-49.77,15.19"/>
		<path style="fill:none;stroke:#000000;stroke-width:3;stroke-linecap:round;stroke-linejoin:bevel;stroke-miterlimit:10;" d="
			M152.1,140.73c0-20.41-14.72-36.92-32.94-36.93h-0.01"/>
		
			<line style="fill:none;stroke:#000000;stroke-width:4;stroke-linecap:round;stroke-miterlimit:10;" x1="200.83" y1="247.66" x2="196.44" y2="238.2"/>
		
			<line style="fill:none;stroke:#000000;stroke-width:4;stroke-linecap:round;stroke-miterlimit:10;" x1="26.08" y1="285.09" x2="40.33" y2="324.17"/>
		
			<line style="fill:none;stroke:#000000;stroke-width:4;stroke-linecap:round;stroke-miterlimit:10;" x1="40.33" y1="324.17" x2="60.83" y2="313.17"/>
		<polyline style="fill:none;stroke:#000000;stroke-width:4;stroke-linecap:round;stroke-miterlimit:10;" points="60.83,313.17 
			59.09,307.93 45.6,267.24 		"/>
		
			<line style="fill:none;stroke:#000000;stroke-width:4;stroke-linecap:round;stroke-miterlimit:10;" x1="59.09" y1="307.93" x2="85.08" y2="293.92"/>
		<polyline style="fill:none;stroke:#000000;stroke-width:4;stroke-linecap:round;stroke-miterlimit:10;" points="85.08,293.92 
			83.68,288.66 74.93,255.76 		"/>
		
			<line style="fill:none;stroke:#000000;stroke-width:4;stroke-linecap:round;stroke-miterlimit:10;" x1="83.68" y1="288.66" x2="115.33" y2="278.42"/>
		<polyline style="fill:none;stroke:#000000;stroke-width:4;stroke-linecap:round;stroke-miterlimit:10;" points="115.33,278.42 
			114.05,273.15 108,248.36 107.83,247.66 		"/>
		
			<line style="fill:none;stroke:#000000;stroke-width:4;stroke-linecap:round;stroke-miterlimit:10;" x1="114.05" y1="273.15" x2="147.83" y2="264.92"/>
		<polyline style="fill:none;stroke:#000000;stroke-width:4;stroke-linecap:round;stroke-miterlimit:10;" points="147.83,264.92 
			147.45,263.04 143.61,244.02 143.61,244.01 		"/>
		
			<line style="fill:none;stroke:#000000;stroke-width:4;stroke-linecap:round;stroke-miterlimit:10;" x1="147.45" y1="263.04" x2="177.33" y2="256.92"/>
		<polyline style="fill:none;stroke:#000000;stroke-width:4;stroke-linecap:round;stroke-miterlimit:10;" points="177.33,256.92 
			176.82,254.7 174.08,242.83 		"/>
		
			<line style="fill:none;stroke:#000000;stroke-width:4;stroke-linecap:round;stroke-miterlimit:10;" x1="176.82" y1="254.7" x2="200.83" y2="247.66"/>
		
			<line style="fill:none;stroke:#000000;stroke-width:4;stroke-linecap:round;stroke-miterlimit:10;" x1="138.589" y1="450.915" x2="121.53" y2="433.193"/>
		
			<line style="fill:none;stroke:#000000;stroke-width:4;stroke-linecap:round;stroke-miterlimit:10;" x1="121.53" y1="433.193" x2="137.535" y2="412.589"/>
		<polyline style="fill:none;stroke:#000000;stroke-width:4;stroke-linecap:round;stroke-miterlimit:10;" points="137.535,412.589 
			142.084,416.582 165.898,437.493 		"/>
		
			<line style="fill:none;stroke:#000000;stroke-width:4;stroke-linecap:round;stroke-miterlimit:10;" x1="142.084" y1="416.582" x2="160.347" y2="392.987"/>
		<polyline style="fill:none;stroke:#000000;stroke-width:4;stroke-linecap:round;stroke-miterlimit:10;" points="160.347,392.987 
			163.642,396.078 185.062,416.215 		"/>
		
			<line style="fill:none;stroke:#000000;stroke-width:4;stroke-linecap:round;stroke-miterlimit:10;" x1="163.642" y1="396.078" x2="177.591" y2="375.945"/>
		<polyline style="fill:none;stroke:#000000;stroke-width:4;stroke-linecap:round;stroke-miterlimit:10;" points="177.591,375.945 
			178.707,376.921 197.268,393.23 		"/>
		
			<line style="fill:none;stroke:#000000;stroke-width:4;stroke-linecap:round;stroke-miterlimit:10;" x1="178.707" y1="376.921" x2="197.38" y2="353.189"/>
		<polyline style="fill:none;stroke:#000000;stroke-width:4;stroke-linecap:round;stroke-miterlimit:10;" points="197.38,353.189 
			198.845,354.475 207.213,361.787 		"/>
		
			<line style="fill:none;stroke:#000000;stroke-width:4;stroke-linecap:round;stroke-miterlimit:10;" x1="198.845" y1="354.475" x2="211.667" y2="335.647"/>
		<path style="fill:none;stroke:#000000;stroke-width:3;stroke-linecap:round;stroke-linejoin:bevel;stroke-miterlimit:10;" d="
			M191.33,66.92"/>
		<path style="fill:none;stroke:#000000;stroke-width:3;stroke-linecap:round;stroke-linejoin:bevel;stroke-miterlimit:10;" d="
			M191.33,66.92"/>
		<path style="fill:none;stroke:#000000;stroke-width:3;stroke-linecap:round;stroke-linejoin:bevel;stroke-miterlimit:10;" d="
			M102.33,155.92c0-49.193,39.807-89,89-89"/>
		<g>
			<path style="fill:none;stroke:#000000;stroke-width:3;stroke-miterlimit:10;" d="M238.33,199.92c0-8.015-6.441-14.5-14.402-14.5"
				/>
			<path style="fill:none;stroke:#000000;stroke-width:3;stroke-miterlimit:10;" d="M273.83,202.92c0-23.215-15.878-42-35.5-42"/>
		</g>
	</g>
</g>
<g id="Layer_1">
</g>
</svg>
